<mxfile host="app.diagrams.net" agent="Mozilla/5.0 (Windows NT 10.0; Win64; x64) AppleWebKit/537.36 (KHTML, like Gecko) Chrome/130.0.0.0 Safari/537.36" version="24.8.4">
  <diagram id="C5RBs43oDa-KdzZeNtuy" name="Page-1">
    <mxGraphModel dx="3301" dy="3177" grid="1" gridSize="10" guides="1" tooltips="1" connect="1" arrows="1" fold="1" page="1" pageScale="1" pageWidth="827" pageHeight="1169" math="0" shadow="0">
      <root>
        <mxCell id="WIyWlLk6GJQsqaUBKTNV-0" />
        <mxCell id="WIyWlLk6GJQsqaUBKTNV-1" parent="WIyWlLk6GJQsqaUBKTNV-0" />
        <mxCell id="eS_6kq-HFucETP7qqi-i-0" value="CreateCustomerPort" style="swimlane;fontStyle=2;align=center;verticalAlign=top;childLayout=stackLayout;horizontal=1;startSize=26;horizontalStack=0;resizeParent=1;resizeLast=0;collapsible=1;marginBottom=0;rounded=0;shadow=0;strokeWidth=1;" parent="WIyWlLk6GJQsqaUBKTNV-1" vertex="1">
          <mxGeometry x="-488" y="-863" width="240" height="90" as="geometry">
            <mxRectangle x="230" y="140" width="160" height="26" as="alternateBounds" />
          </mxGeometry>
        </mxCell>
        <mxCell id="eS_6kq-HFucETP7qqi-i-1" value="customerRepository (CustomerRepository)" style="text;align=left;verticalAlign=top;spacingLeft=4;spacingRight=4;overflow=hidden;rotatable=0;points=[[0,0.5],[1,0.5]];portConstraint=eastwest;" parent="eS_6kq-HFucETP7qqi-i-0" vertex="1">
          <mxGeometry y="26" width="240" height="26" as="geometry" />
        </mxCell>
        <mxCell id="eS_6kq-HFucETP7qqi-i-4" value="" style="line;html=1;strokeWidth=1;align=left;verticalAlign=middle;spacingTop=-1;spacingLeft=3;spacingRight=3;rotatable=0;labelPosition=right;points=[];portConstraint=eastwest;" parent="eS_6kq-HFucETP7qqi-i-0" vertex="1">
          <mxGeometry y="52" width="240" height="8" as="geometry" />
        </mxCell>
        <mxCell id="eS_6kq-HFucETP7qqi-i-5" value="save(Customer customer)" style="text;align=left;verticalAlign=top;spacingLeft=4;spacingRight=4;overflow=hidden;rotatable=0;points=[[0,0.5],[1,0.5]];portConstraint=eastwest;" parent="eS_6kq-HFucETP7qqi-i-0" vertex="1">
          <mxGeometry y="60" width="240" height="26" as="geometry" />
        </mxCell>
        <mxCell id="eS_6kq-HFucETP7qqi-i-6" value="DeleteCustomerPort" style="swimlane;fontStyle=2;align=center;verticalAlign=top;childLayout=stackLayout;horizontal=1;startSize=26;horizontalStack=0;resizeParent=1;resizeLast=0;collapsible=1;marginBottom=0;rounded=0;shadow=0;strokeWidth=1;" parent="WIyWlLk6GJQsqaUBKTNV-1" vertex="1">
          <mxGeometry x="-490" y="-733" width="242" height="90" as="geometry">
            <mxRectangle x="230" y="140" width="160" height="26" as="alternateBounds" />
          </mxGeometry>
        </mxCell>
        <mxCell id="eS_6kq-HFucETP7qqi-i-7" value="customerRepository (CustomerRepository)" style="text;align=left;verticalAlign=top;spacingLeft=4;spacingRight=4;overflow=hidden;rotatable=0;points=[[0,0.5],[1,0.5]];portConstraint=eastwest;" parent="eS_6kq-HFucETP7qqi-i-6" vertex="1">
          <mxGeometry y="26" width="242" height="26" as="geometry" />
        </mxCell>
        <mxCell id="eS_6kq-HFucETP7qqi-i-8" value="" style="line;html=1;strokeWidth=1;align=left;verticalAlign=middle;spacingTop=-1;spacingLeft=3;spacingRight=3;rotatable=0;labelPosition=right;points=[];portConstraint=eastwest;" parent="eS_6kq-HFucETP7qqi-i-6" vertex="1">
          <mxGeometry y="52" width="242" height="8" as="geometry" />
        </mxCell>
        <mxCell id="eS_6kq-HFucETP7qqi-i-9" value="deleteById(customerId customerId)" style="text;align=left;verticalAlign=top;spacingLeft=4;spacingRight=4;overflow=hidden;rotatable=0;points=[[0,0.5],[1,0.5]];portConstraint=eastwest;" parent="eS_6kq-HFucETP7qqi-i-6" vertex="1">
          <mxGeometry y="60" width="242" height="26" as="geometry" />
        </mxCell>
        <mxCell id="eS_6kq-HFucETP7qqi-i-194" style="edgeStyle=orthogonalEdgeStyle;rounded=0;orthogonalLoop=1;jettySize=auto;html=1;entryX=0;entryY=0.5;entryDx=0;entryDy=0;endArrow=none;endFill=0;" parent="WIyWlLk6GJQsqaUBKTNV-1" source="eS_6kq-HFucETP7qqi-i-10" target="eS_6kq-HFucETP7qqi-i-101" edge="1">
          <mxGeometry relative="1" as="geometry">
            <Array as="points">
              <mxPoint x="-160" y="-557" />
              <mxPoint x="-160" y="-597" />
            </Array>
          </mxGeometry>
        </mxCell>
        <mxCell id="eS_6kq-HFucETP7qqi-i-10" value="ModifyCustomerPort" style="swimlane;fontStyle=2;align=center;verticalAlign=top;childLayout=stackLayout;horizontal=1;startSize=26;horizontalStack=0;resizeParent=1;resizeLast=0;collapsible=1;marginBottom=0;rounded=0;shadow=0;strokeWidth=1;" parent="WIyWlLk6GJQsqaUBKTNV-1" vertex="1">
          <mxGeometry x="-483" y="-602" width="240" height="90" as="geometry">
            <mxRectangle x="230" y="140" width="160" height="26" as="alternateBounds" />
          </mxGeometry>
        </mxCell>
        <mxCell id="eS_6kq-HFucETP7qqi-i-11" value="customerRepository (CustomerRepository)" style="text;align=left;verticalAlign=top;spacingLeft=4;spacingRight=4;overflow=hidden;rotatable=0;points=[[0,0.5],[1,0.5]];portConstraint=eastwest;" parent="eS_6kq-HFucETP7qqi-i-10" vertex="1">
          <mxGeometry y="26" width="240" height="26" as="geometry" />
        </mxCell>
        <mxCell id="eS_6kq-HFucETP7qqi-i-12" value="" style="line;html=1;strokeWidth=1;align=left;verticalAlign=middle;spacingTop=-1;spacingLeft=3;spacingRight=3;rotatable=0;labelPosition=right;points=[];portConstraint=eastwest;" parent="eS_6kq-HFucETP7qqi-i-10" vertex="1">
          <mxGeometry y="52" width="240" height="8" as="geometry" />
        </mxCell>
        <mxCell id="eS_6kq-HFucETP7qqi-i-13" value="modifyCustomer(Customer customer)" style="text;align=left;verticalAlign=top;spacingLeft=4;spacingRight=4;overflow=hidden;rotatable=0;points=[[0,0.5],[1,0.5]];portConstraint=eastwest;" parent="eS_6kq-HFucETP7qqi-i-10" vertex="1">
          <mxGeometry y="60" width="240" height="26" as="geometry" />
        </mxCell>
        <mxCell id="eS_6kq-HFucETP7qqi-i-195" style="edgeStyle=orthogonalEdgeStyle;rounded=0;orthogonalLoop=1;jettySize=auto;html=1;entryX=0;entryY=0.5;entryDx=0;entryDy=0;endArrow=none;endFill=0;" parent="WIyWlLk6GJQsqaUBKTNV-1" source="eS_6kq-HFucETP7qqi-i-14" target="eS_6kq-HFucETP7qqi-i-101" edge="1">
          <mxGeometry relative="1" as="geometry">
            <Array as="points">
              <mxPoint x="-160" y="-443" />
              <mxPoint x="-160" y="-597" />
            </Array>
          </mxGeometry>
        </mxCell>
        <mxCell id="eS_6kq-HFucETP7qqi-i-14" value="FindCustomerByIdPort" style="swimlane;fontStyle=2;align=center;verticalAlign=top;childLayout=stackLayout;horizontal=1;startSize=26;horizontalStack=0;resizeParent=1;resizeLast=0;collapsible=1;marginBottom=0;rounded=0;shadow=0;strokeWidth=1;" parent="WIyWlLk6GJQsqaUBKTNV-1" vertex="1">
          <mxGeometry x="-481" y="-488" width="240" height="90" as="geometry">
            <mxRectangle x="230" y="140" width="160" height="26" as="alternateBounds" />
          </mxGeometry>
        </mxCell>
        <mxCell id="eS_6kq-HFucETP7qqi-i-15" value="customerRepository (CustomerRepository)" style="text;align=left;verticalAlign=top;spacingLeft=4;spacingRight=4;overflow=hidden;rotatable=0;points=[[0,0.5],[1,0.5]];portConstraint=eastwest;" parent="eS_6kq-HFucETP7qqi-i-14" vertex="1">
          <mxGeometry y="26" width="240" height="26" as="geometry" />
        </mxCell>
        <mxCell id="eS_6kq-HFucETP7qqi-i-16" value="" style="line;html=1;strokeWidth=1;align=left;verticalAlign=middle;spacingTop=-1;spacingLeft=3;spacingRight=3;rotatable=0;labelPosition=right;points=[];portConstraint=eastwest;" parent="eS_6kq-HFucETP7qqi-i-14" vertex="1">
          <mxGeometry y="52" width="240" height="8" as="geometry" />
        </mxCell>
        <mxCell id="eS_6kq-HFucETP7qqi-i-17" value="findCustomerById(String customerId)" style="text;align=left;verticalAlign=top;spacingLeft=4;spacingRight=4;overflow=hidden;rotatable=0;points=[[0,0.5],[1,0.5]];portConstraint=eastwest;" parent="eS_6kq-HFucETP7qqi-i-14" vertex="1">
          <mxGeometry y="60" width="240" height="26" as="geometry" />
        </mxCell>
        <mxCell id="eS_6kq-HFucETP7qqi-i-196" style="edgeStyle=orthogonalEdgeStyle;rounded=0;orthogonalLoop=1;jettySize=auto;html=1;entryX=0;entryY=0.5;entryDx=0;entryDy=0;endArrow=none;endFill=0;" parent="WIyWlLk6GJQsqaUBKTNV-1" source="eS_6kq-HFucETP7qqi-i-18" target="eS_6kq-HFucETP7qqi-i-101" edge="1">
          <mxGeometry relative="1" as="geometry">
            <Array as="points">
              <mxPoint x="-160" y="-317" />
              <mxPoint x="-160" y="-597" />
            </Array>
          </mxGeometry>
        </mxCell>
        <mxCell id="eS_6kq-HFucETP7qqi-i-261" style="edgeStyle=orthogonalEdgeStyle;rounded=0;orthogonalLoop=1;jettySize=auto;html=1;entryX=0.5;entryY=0;entryDx=0;entryDy=0;" parent="WIyWlLk6GJQsqaUBKTNV-1" source="eS_6kq-HFucETP7qqi-i-18" target="eS_6kq-HFucETP7qqi-i-44" edge="1">
          <mxGeometry relative="1" as="geometry" />
        </mxCell>
        <mxCell id="eS_6kq-HFucETP7qqi-i-18" value="FindCustomersPort" style="swimlane;fontStyle=2;align=center;verticalAlign=top;childLayout=stackLayout;horizontal=1;startSize=26;horizontalStack=0;resizeParent=1;resizeLast=0;collapsible=1;marginBottom=0;rounded=0;shadow=0;strokeWidth=1;" parent="WIyWlLk6GJQsqaUBKTNV-1" vertex="1">
          <mxGeometry x="-481" y="-373" width="280" height="112" as="geometry">
            <mxRectangle x="230" y="140" width="160" height="26" as="alternateBounds" />
          </mxGeometry>
        </mxCell>
        <mxCell id="eS_6kq-HFucETP7qqi-i-19" value="customerRepository (CustomerRepository)" style="text;align=left;verticalAlign=top;spacingLeft=4;spacingRight=4;overflow=hidden;rotatable=0;points=[[0,0.5],[1,0.5]];portConstraint=eastwest;" parent="eS_6kq-HFucETP7qqi-i-18" vertex="1">
          <mxGeometry y="26" width="280" height="26" as="geometry" />
        </mxCell>
        <mxCell id="eS_6kq-HFucETP7qqi-i-22" value="customerFilterList (List&lt;CustomerFieldFilter&gt;) " style="text;align=left;verticalAlign=top;spacingLeft=4;spacingRight=4;overflow=hidden;rotatable=0;points=[[0,0.5],[1,0.5]];portConstraint=eastwest;" parent="eS_6kq-HFucETP7qqi-i-18" vertex="1">
          <mxGeometry y="52" width="280" height="26" as="geometry" />
        </mxCell>
        <mxCell id="eS_6kq-HFucETP7qqi-i-20" value="" style="line;html=1;strokeWidth=1;align=left;verticalAlign=middle;spacingTop=-1;spacingLeft=3;spacingRight=3;rotatable=0;labelPosition=right;points=[];portConstraint=eastwest;" parent="eS_6kq-HFucETP7qqi-i-18" vertex="1">
          <mxGeometry y="78" width="280" height="8" as="geometry" />
        </mxCell>
        <mxCell id="eS_6kq-HFucETP7qqi-i-21" value="findCustomerById(CustomerFilters customerFilters)" style="text;align=left;verticalAlign=top;spacingLeft=4;spacingRight=4;overflow=hidden;rotatable=0;points=[[0,0.5],[1,0.5]];portConstraint=eastwest;" parent="eS_6kq-HFucETP7qqi-i-18" vertex="1">
          <mxGeometry y="86" width="280" height="26" as="geometry" />
        </mxCell>
        <mxCell id="eS_6kq-HFucETP7qqi-i-23" value="CreateCustomerUseCase" style="swimlane;fontStyle=2;align=center;verticalAlign=top;childLayout=stackLayout;horizontal=1;startSize=26;horizontalStack=0;resizeParent=1;resizeLast=0;collapsible=1;marginBottom=0;rounded=0;shadow=0;strokeWidth=1;fillColor=#fff2cc;strokeColor=#d6b656;" parent="WIyWlLk6GJQsqaUBKTNV-1" vertex="1">
          <mxGeometry x="-817.5" y="-830" width="160" height="60" as="geometry">
            <mxRectangle x="230" y="140" width="160" height="26" as="alternateBounds" />
          </mxGeometry>
        </mxCell>
        <mxCell id="eS_6kq-HFucETP7qqi-i-26" value="save(Customer customer)" style="text;align=left;verticalAlign=top;spacingLeft=4;spacingRight=4;overflow=hidden;rotatable=0;points=[[0,0.5],[1,0.5]];portConstraint=eastwest;" parent="eS_6kq-HFucETP7qqi-i-23" vertex="1">
          <mxGeometry y="26" width="160" height="26" as="geometry" />
        </mxCell>
        <mxCell id="eS_6kq-HFucETP7qqi-i-27" value="DeleteCustomerUseCase" style="swimlane;fontStyle=2;align=center;verticalAlign=top;childLayout=stackLayout;horizontal=1;startSize=26;horizontalStack=0;resizeParent=1;resizeLast=0;collapsible=1;marginBottom=0;rounded=0;shadow=0;strokeWidth=1;fillColor=#fff2cc;strokeColor=#d6b656;" parent="WIyWlLk6GJQsqaUBKTNV-1" vertex="1">
          <mxGeometry x="-827" y="-700" width="185" height="60" as="geometry">
            <mxRectangle x="230" y="140" width="160" height="26" as="alternateBounds" />
          </mxGeometry>
        </mxCell>
        <mxCell id="eS_6kq-HFucETP7qqi-i-30" value="deleteById(String customerId)" style="text;align=left;verticalAlign=top;spacingLeft=4;spacingRight=4;overflow=hidden;rotatable=0;points=[[0,0.5],[1,0.5]];portConstraint=eastwest;" parent="eS_6kq-HFucETP7qqi-i-27" vertex="1">
          <mxGeometry y="26" width="185" height="26" as="geometry" />
        </mxCell>
        <mxCell id="eS_6kq-HFucETP7qqi-i-31" value="ModifyCustomerUseCase" style="swimlane;fontStyle=2;align=center;verticalAlign=top;childLayout=stackLayout;horizontal=1;startSize=26;horizontalStack=0;resizeParent=1;resizeLast=0;collapsible=1;marginBottom=0;rounded=0;shadow=0;strokeWidth=1;fillColor=#fff2cc;strokeColor=#d6b656;" parent="WIyWlLk6GJQsqaUBKTNV-1" vertex="1">
          <mxGeometry x="-830" y="-571" width="225" height="60" as="geometry">
            <mxRectangle x="230" y="140" width="160" height="26" as="alternateBounds" />
          </mxGeometry>
        </mxCell>
        <mxCell id="eS_6kq-HFucETP7qqi-i-34" value="modifyCustomer(Customer customer)" style="text;align=left;verticalAlign=top;spacingLeft=4;spacingRight=4;overflow=hidden;rotatable=0;points=[[0,0.5],[1,0.5]];portConstraint=eastwest;" parent="eS_6kq-HFucETP7qqi-i-31" vertex="1">
          <mxGeometry y="26" width="225" height="26" as="geometry" />
        </mxCell>
        <mxCell id="eS_6kq-HFucETP7qqi-i-35" value="FindCustomerByIdUseCase" style="swimlane;fontStyle=2;align=center;verticalAlign=top;childLayout=stackLayout;horizontal=1;startSize=26;horizontalStack=0;resizeParent=1;resizeLast=0;collapsible=1;marginBottom=0;rounded=0;shadow=0;strokeWidth=1;fillColor=#fff2cc;strokeColor=#d6b656;" parent="WIyWlLk6GJQsqaUBKTNV-1" vertex="1">
          <mxGeometry x="-830" y="-458" width="210" height="52" as="geometry">
            <mxRectangle x="230" y="140" width="160" height="26" as="alternateBounds" />
          </mxGeometry>
        </mxCell>
        <mxCell id="eS_6kq-HFucETP7qqi-i-38" value="findCustomerById(String customerId)" style="text;align=left;verticalAlign=top;spacingLeft=4;spacingRight=4;overflow=hidden;rotatable=0;points=[[0,0.5],[1,0.5]];portConstraint=eastwest;" parent="eS_6kq-HFucETP7qqi-i-35" vertex="1">
          <mxGeometry y="26" width="210" height="26" as="geometry" />
        </mxCell>
        <mxCell id="eS_6kq-HFucETP7qqi-i-39" value="FindCustomersUseCase" style="swimlane;fontStyle=2;align=center;verticalAlign=top;childLayout=stackLayout;horizontal=1;startSize=26;horizontalStack=0;resizeParent=1;resizeLast=0;collapsible=1;marginBottom=0;rounded=0;shadow=0;strokeWidth=1;fillColor=#fff2cc;strokeColor=#d6b656;" parent="WIyWlLk6GJQsqaUBKTNV-1" vertex="1">
          <mxGeometry x="-830" y="-340" width="295" height="60" as="geometry">
            <mxRectangle x="230" y="140" width="160" height="26" as="alternateBounds" />
          </mxGeometry>
        </mxCell>
        <mxCell id="eS_6kq-HFucETP7qqi-i-43" value="findCustomerById(CustomerFilters customerFilters)" style="text;align=left;verticalAlign=top;spacingLeft=4;spacingRight=4;overflow=hidden;rotatable=0;points=[[0,0.5],[1,0.5]];portConstraint=eastwest;" parent="eS_6kq-HFucETP7qqi-i-39" vertex="1">
          <mxGeometry y="26" width="295" height="26" as="geometry" />
        </mxCell>
        <mxCell id="eS_6kq-HFucETP7qqi-i-250" style="edgeStyle=orthogonalEdgeStyle;rounded=0;orthogonalLoop=1;jettySize=auto;html=1;entryX=0.5;entryY=0;entryDx=0;entryDy=0;startArrow=block;startFill=0;endArrow=none;endFill=0;" parent="WIyWlLk6GJQsqaUBKTNV-1" source="eS_6kq-HFucETP7qqi-i-44" target="eS_6kq-HFucETP7qqi-i-73" edge="1">
          <mxGeometry relative="1" as="geometry">
            <Array as="points">
              <mxPoint x="-410" y="-90" />
              <mxPoint x="-1190" y="-90" />
            </Array>
          </mxGeometry>
        </mxCell>
        <mxCell id="eS_6kq-HFucETP7qqi-i-251" style="edgeStyle=orthogonalEdgeStyle;rounded=0;orthogonalLoop=1;jettySize=auto;html=1;endArrow=none;endFill=0;" parent="WIyWlLk6GJQsqaUBKTNV-1" source="eS_6kq-HFucETP7qqi-i-44" target="eS_6kq-HFucETP7qqi-i-70" edge="1">
          <mxGeometry relative="1" as="geometry">
            <Array as="points">
              <mxPoint x="-410" y="-90" />
              <mxPoint x="-937" y="-90" />
            </Array>
          </mxGeometry>
        </mxCell>
        <mxCell id="eS_6kq-HFucETP7qqi-i-252" style="edgeStyle=orthogonalEdgeStyle;rounded=0;orthogonalLoop=1;jettySize=auto;html=1;exitX=0.5;exitY=1;exitDx=0;exitDy=0;endArrow=none;endFill=0;" parent="WIyWlLk6GJQsqaUBKTNV-1" source="eS_6kq-HFucETP7qqi-i-44" target="eS_6kq-HFucETP7qqi-i-59" edge="1">
          <mxGeometry relative="1" as="geometry" />
        </mxCell>
        <mxCell id="eS_6kq-HFucETP7qqi-i-254" style="edgeStyle=orthogonalEdgeStyle;rounded=0;orthogonalLoop=1;jettySize=auto;html=1;entryX=0.5;entryY=0;entryDx=0;entryDy=0;endArrow=none;endFill=0;" parent="WIyWlLk6GJQsqaUBKTNV-1" source="eS_6kq-HFucETP7qqi-i-44" target="eS_6kq-HFucETP7qqi-i-67" edge="1">
          <mxGeometry relative="1" as="geometry" />
        </mxCell>
        <mxCell id="eS_6kq-HFucETP7qqi-i-255" style="edgeStyle=orthogonalEdgeStyle;rounded=0;orthogonalLoop=1;jettySize=auto;html=1;entryX=0.5;entryY=0;entryDx=0;entryDy=0;endArrow=none;endFill=0;" parent="WIyWlLk6GJQsqaUBKTNV-1" source="eS_6kq-HFucETP7qqi-i-44" target="eS_6kq-HFucETP7qqi-i-76" edge="1">
          <mxGeometry relative="1" as="geometry">
            <Array as="points">
              <mxPoint x="-410" y="-90" />
              <mxPoint x="70" y="-90" />
            </Array>
          </mxGeometry>
        </mxCell>
        <mxCell id="eS_6kq-HFucETP7qqi-i-44" value="CustomerFieldFilter" style="swimlane;fontStyle=2;align=center;verticalAlign=top;childLayout=stackLayout;horizontal=1;startSize=26;horizontalStack=0;resizeParent=1;resizeLast=0;collapsible=1;marginBottom=0;rounded=0;shadow=0;strokeWidth=1;fillColor=#fff2cc;strokeColor=#d6b656;" parent="WIyWlLk6GJQsqaUBKTNV-1" vertex="1">
          <mxGeometry x="-533" y="-226" width="240" height="120" as="geometry">
            <mxRectangle x="230" y="140" width="160" height="26" as="alternateBounds" />
          </mxGeometry>
        </mxCell>
        <mxCell id="eS_6kq-HFucETP7qqi-i-47" value="apply (Customerfilter customerFilter)" style="text;align=left;verticalAlign=top;spacingLeft=4;spacingRight=4;overflow=hidden;rotatable=0;points=[[0,0.5],[1,0.5]];portConstraint=eastwest;" parent="eS_6kq-HFucETP7qqi-i-44" vertex="1">
          <mxGeometry y="26" width="240" height="26" as="geometry" />
        </mxCell>
        <mxCell id="eS_6kq-HFucETP7qqi-i-58" value="addSearchCriteria(CustomerFilter &#xa;customerFilter, List&lt;SearchCriteria&gt; &#xa;searchCriteriaList)" style="text;align=left;verticalAlign=top;spacingLeft=4;spacingRight=4;overflow=hidden;rotatable=0;points=[[0,0.5],[1,0.5]];portConstraint=eastwest;fillColor=#FFFFFF;" parent="eS_6kq-HFucETP7qqi-i-44" vertex="1">
          <mxGeometry y="52" width="240" height="44" as="geometry" />
        </mxCell>
        <mxCell id="eS_6kq-HFucETP7qqi-i-208" value="" style="edgeStyle=orthogonalEdgeStyle;rounded=0;orthogonalLoop=1;jettySize=auto;html=1;entryX=0.453;entryY=0.006;entryDx=0;entryDy=0;entryPerimeter=0;" parent="WIyWlLk6GJQsqaUBKTNV-1" source="eS_6kq-HFucETP7qqi-i-48" target="eS_6kq-HFucETP7qqi-i-53" edge="1">
          <mxGeometry relative="1" as="geometry" />
        </mxCell>
        <mxCell id="eS_6kq-HFucETP7qqi-i-48" value="SearchCriteria" style="swimlane;fontStyle=2;align=center;verticalAlign=top;childLayout=stackLayout;horizontal=1;startSize=26;horizontalStack=0;resizeParent=1;resizeLast=0;collapsible=1;marginBottom=0;rounded=0;shadow=0;strokeWidth=1;" parent="WIyWlLk6GJQsqaUBKTNV-1" vertex="1">
          <mxGeometry x="-100" y="-430" width="210" height="104" as="geometry">
            <mxRectangle x="230" y="140" width="160" height="26" as="alternateBounds" />
          </mxGeometry>
        </mxCell>
        <mxCell id="eS_6kq-HFucETP7qqi-i-49" value="key (String)" style="text;align=left;verticalAlign=top;spacingLeft=4;spacingRight=4;overflow=hidden;rotatable=0;points=[[0,0.5],[1,0.5]];portConstraint=eastwest;" parent="eS_6kq-HFucETP7qqi-i-48" vertex="1">
          <mxGeometry y="26" width="210" height="26" as="geometry" />
        </mxCell>
        <mxCell id="eS_6kq-HFucETP7qqi-i-52" value="operation (SearchOperation)" style="text;align=left;verticalAlign=top;spacingLeft=4;spacingRight=4;overflow=hidden;rotatable=0;points=[[0,0.5],[1,0.5]];portConstraint=eastwest;" parent="eS_6kq-HFucETP7qqi-i-48" vertex="1">
          <mxGeometry y="52" width="210" height="26" as="geometry" />
        </mxCell>
        <mxCell id="eS_6kq-HFucETP7qqi-i-51" value="value (Object)" style="text;align=left;verticalAlign=top;spacingLeft=4;spacingRight=4;overflow=hidden;rotatable=0;points=[[0,0.5],[1,0.5]];portConstraint=eastwest;" parent="eS_6kq-HFucETP7qqi-i-48" vertex="1">
          <mxGeometry y="78" width="210" height="26" as="geometry" />
        </mxCell>
        <mxCell id="eS_6kq-HFucETP7qqi-i-53" value="SearchOperation (enum)" style="swimlane;fontStyle=2;align=center;verticalAlign=top;childLayout=stackLayout;horizontal=1;startSize=26;horizontalStack=0;resizeParent=1;resizeLast=0;collapsible=1;marginBottom=0;rounded=0;shadow=0;strokeWidth=1;" parent="WIyWlLk6GJQsqaUBKTNV-1" vertex="1">
          <mxGeometry x="-90" y="-290" width="210" height="104" as="geometry">
            <mxRectangle x="230" y="140" width="160" height="26" as="alternateBounds" />
          </mxGeometry>
        </mxCell>
        <mxCell id="eS_6kq-HFucETP7qqi-i-54" value="EQUAL" style="text;align=left;verticalAlign=top;spacingLeft=4;spacingRight=4;overflow=hidden;rotatable=0;points=[[0,0.5],[1,0.5]];portConstraint=eastwest;" parent="eS_6kq-HFucETP7qqi-i-53" vertex="1">
          <mxGeometry y="26" width="210" height="26" as="geometry" />
        </mxCell>
        <mxCell id="eS_6kq-HFucETP7qqi-i-55" value="LIKE" style="text;align=left;verticalAlign=top;spacingLeft=4;spacingRight=4;overflow=hidden;rotatable=0;points=[[0,0.5],[1,0.5]];portConstraint=eastwest;" parent="eS_6kq-HFucETP7qqi-i-53" vertex="1">
          <mxGeometry y="52" width="210" height="26" as="geometry" />
        </mxCell>
        <mxCell id="eS_6kq-HFucETP7qqi-i-59" value="CustomerNameFilter" style="swimlane;fontStyle=2;align=center;verticalAlign=top;childLayout=stackLayout;horizontal=1;startSize=26;horizontalStack=0;resizeParent=1;resizeLast=0;collapsible=1;marginBottom=0;rounded=0;shadow=0;strokeWidth=1;" parent="WIyWlLk6GJQsqaUBKTNV-1" vertex="1">
          <mxGeometry x="-802.5" y="-60" width="240" height="110" as="geometry">
            <mxRectangle x="230" y="140" width="160" height="26" as="alternateBounds" />
          </mxGeometry>
        </mxCell>
        <mxCell id="eS_6kq-HFucETP7qqi-i-62" value="apply (Customerfilter customerFilter)" style="text;align=left;verticalAlign=top;spacingLeft=4;spacingRight=4;overflow=hidden;rotatable=0;points=[[0,0.5],[1,0.5]];portConstraint=eastwest;" parent="eS_6kq-HFucETP7qqi-i-59" vertex="1">
          <mxGeometry y="26" width="240" height="26" as="geometry" />
        </mxCell>
        <mxCell id="eS_6kq-HFucETP7qqi-i-63" value="addSearchCriteria(CustomerFilter &#xa;customerFilter, List&lt;SearchCriteria&gt; &#xa;searchCriteriaList)" style="text;align=left;verticalAlign=top;spacingLeft=4;spacingRight=4;overflow=hidden;rotatable=0;points=[[0,0.5],[1,0.5]];portConstraint=eastwest;fillColor=#FFFFFF;" parent="eS_6kq-HFucETP7qqi-i-59" vertex="1">
          <mxGeometry y="52" width="240" height="44" as="geometry" />
        </mxCell>
        <mxCell id="eS_6kq-HFucETP7qqi-i-64" value="CustomerLastNameFilter" style="swimlane;fontStyle=2;align=center;verticalAlign=top;childLayout=stackLayout;horizontal=1;startSize=26;horizontalStack=0;resizeParent=1;resizeLast=0;collapsible=1;marginBottom=0;rounded=0;shadow=0;strokeWidth=1;" parent="WIyWlLk6GJQsqaUBKTNV-1" vertex="1">
          <mxGeometry x="-550" y="-60" width="240" height="110" as="geometry">
            <mxRectangle x="230" y="140" width="160" height="26" as="alternateBounds" />
          </mxGeometry>
        </mxCell>
        <mxCell id="eS_6kq-HFucETP7qqi-i-65" value="apply (Customerfilter customerFilter)" style="text;align=left;verticalAlign=top;spacingLeft=4;spacingRight=4;overflow=hidden;rotatable=0;points=[[0,0.5],[1,0.5]];portConstraint=eastwest;" parent="eS_6kq-HFucETP7qqi-i-64" vertex="1">
          <mxGeometry y="26" width="240" height="26" as="geometry" />
        </mxCell>
        <mxCell id="eS_6kq-HFucETP7qqi-i-66" value="addSearchCriteria(CustomerFilter &#xa;customerFilter, List&lt;SearchCriteria&gt; &#xa;searchCriteriaList)" style="text;align=left;verticalAlign=top;spacingLeft=4;spacingRight=4;overflow=hidden;rotatable=0;points=[[0,0.5],[1,0.5]];portConstraint=eastwest;fillColor=#FFFFFF;" parent="eS_6kq-HFucETP7qqi-i-64" vertex="1">
          <mxGeometry y="52" width="240" height="44" as="geometry" />
        </mxCell>
        <mxCell id="eS_6kq-HFucETP7qqi-i-67" value="CustomerAddressFilter" style="swimlane;fontStyle=2;align=center;verticalAlign=top;childLayout=stackLayout;horizontal=1;startSize=26;horizontalStack=0;resizeParent=1;resizeLast=0;collapsible=1;marginBottom=0;rounded=0;shadow=0;strokeWidth=1;" parent="WIyWlLk6GJQsqaUBKTNV-1" vertex="1">
          <mxGeometry x="-300" y="-60" width="240" height="110" as="geometry">
            <mxRectangle x="230" y="140" width="160" height="26" as="alternateBounds" />
          </mxGeometry>
        </mxCell>
        <mxCell id="eS_6kq-HFucETP7qqi-i-68" value="apply (Customerfilter customerFilter)" style="text;align=left;verticalAlign=top;spacingLeft=4;spacingRight=4;overflow=hidden;rotatable=0;points=[[0,0.5],[1,0.5]];portConstraint=eastwest;" parent="eS_6kq-HFucETP7qqi-i-67" vertex="1">
          <mxGeometry y="26" width="240" height="26" as="geometry" />
        </mxCell>
        <mxCell id="eS_6kq-HFucETP7qqi-i-69" value="addSearchCriteria(CustomerFilter &#xa;customerFilter, List&lt;SearchCriteria&gt; &#xa;searchCriteriaList)" style="text;align=left;verticalAlign=top;spacingLeft=4;spacingRight=4;overflow=hidden;rotatable=0;points=[[0,0.5],[1,0.5]];portConstraint=eastwest;fillColor=#FFFFFF;" parent="eS_6kq-HFucETP7qqi-i-67" vertex="1">
          <mxGeometry y="52" width="240" height="44" as="geometry" />
        </mxCell>
        <mxCell id="eS_6kq-HFucETP7qqi-i-70" value="CustomerMobilePhoneFilter" style="swimlane;fontStyle=2;align=center;verticalAlign=top;childLayout=stackLayout;horizontal=1;startSize=26;horizontalStack=0;resizeParent=1;resizeLast=0;collapsible=1;marginBottom=0;rounded=0;shadow=0;strokeWidth=1;" parent="WIyWlLk6GJQsqaUBKTNV-1" vertex="1">
          <mxGeometry x="-1057.5" y="-60" width="240" height="110" as="geometry">
            <mxRectangle x="230" y="140" width="160" height="26" as="alternateBounds" />
          </mxGeometry>
        </mxCell>
        <mxCell id="eS_6kq-HFucETP7qqi-i-71" value="apply (Customerfilter customerFilter)" style="text;align=left;verticalAlign=top;spacingLeft=4;spacingRight=4;overflow=hidden;rotatable=0;points=[[0,0.5],[1,0.5]];portConstraint=eastwest;" parent="eS_6kq-HFucETP7qqi-i-70" vertex="1">
          <mxGeometry y="26" width="240" height="26" as="geometry" />
        </mxCell>
        <mxCell id="eS_6kq-HFucETP7qqi-i-72" value="addSearchCriteria(CustomerFilter &#xa;customerFilter, List&lt;SearchCriteria&gt; &#xa;searchCriteriaList)" style="text;align=left;verticalAlign=top;spacingLeft=4;spacingRight=4;overflow=hidden;rotatable=0;points=[[0,0.5],[1,0.5]];portConstraint=eastwest;fillColor=#FFFFFF;" parent="eS_6kq-HFucETP7qqi-i-70" vertex="1">
          <mxGeometry y="52" width="240" height="44" as="geometry" />
        </mxCell>
        <mxCell id="eS_6kq-HFucETP7qqi-i-73" value="CustomerMobileNeedsInvoiceFilter" style="swimlane;fontStyle=2;align=center;verticalAlign=top;childLayout=stackLayout;horizontal=1;startSize=26;horizontalStack=0;resizeParent=1;resizeLast=0;collapsible=1;marginBottom=0;rounded=0;shadow=0;strokeWidth=1;" parent="WIyWlLk6GJQsqaUBKTNV-1" vertex="1">
          <mxGeometry x="-1310" y="-60" width="240" height="110" as="geometry">
            <mxRectangle x="230" y="140" width="160" height="26" as="alternateBounds" />
          </mxGeometry>
        </mxCell>
        <mxCell id="eS_6kq-HFucETP7qqi-i-74" value="apply (Customerfilter customerFilter)" style="text;align=left;verticalAlign=top;spacingLeft=4;spacingRight=4;overflow=hidden;rotatable=0;points=[[0,0.5],[1,0.5]];portConstraint=eastwest;" parent="eS_6kq-HFucETP7qqi-i-73" vertex="1">
          <mxGeometry y="26" width="240" height="26" as="geometry" />
        </mxCell>
        <mxCell id="eS_6kq-HFucETP7qqi-i-75" value="addSearchCriteria(CustomerFilter &#xa;customerFilter, List&lt;SearchCriteria&gt; &#xa;searchCriteriaList)" style="text;align=left;verticalAlign=top;spacingLeft=4;spacingRight=4;overflow=hidden;rotatable=0;points=[[0,0.5],[1,0.5]];portConstraint=eastwest;fillColor=#FFFFFF;" parent="eS_6kq-HFucETP7qqi-i-73" vertex="1">
          <mxGeometry y="52" width="240" height="44" as="geometry" />
        </mxCell>
        <mxCell id="eS_6kq-HFucETP7qqi-i-76" value="CustomerMobileEmailFilter" style="swimlane;fontStyle=2;align=center;verticalAlign=top;childLayout=stackLayout;horizontal=1;startSize=26;horizontalStack=0;resizeParent=1;resizeLast=0;collapsible=1;marginBottom=0;rounded=0;shadow=0;strokeWidth=1;" parent="WIyWlLk6GJQsqaUBKTNV-1" vertex="1">
          <mxGeometry x="-50" y="-60" width="240" height="110" as="geometry">
            <mxRectangle x="230" y="140" width="160" height="26" as="alternateBounds" />
          </mxGeometry>
        </mxCell>
        <mxCell id="eS_6kq-HFucETP7qqi-i-77" value="apply (Customerfilter customerFilter)" style="text;align=left;verticalAlign=top;spacingLeft=4;spacingRight=4;overflow=hidden;rotatable=0;points=[[0,0.5],[1,0.5]];portConstraint=eastwest;" parent="eS_6kq-HFucETP7qqi-i-76" vertex="1">
          <mxGeometry y="26" width="240" height="26" as="geometry" />
        </mxCell>
        <mxCell id="eS_6kq-HFucETP7qqi-i-78" value="addSearchCriteria(CustomerFilter &#xa;customerFilter, List&lt;SearchCriteria&gt; &#xa;searchCriteriaList)" style="text;align=left;verticalAlign=top;spacingLeft=4;spacingRight=4;overflow=hidden;rotatable=0;points=[[0,0.5],[1,0.5]];portConstraint=eastwest;fillColor=#FFFFFF;" parent="eS_6kq-HFucETP7qqi-i-76" vertex="1">
          <mxGeometry y="52" width="240" height="44" as="geometry" />
        </mxCell>
        <mxCell id="eS_6kq-HFucETP7qqi-i-202" style="edgeStyle=orthogonalEdgeStyle;rounded=0;orthogonalLoop=1;jettySize=auto;html=1;endArrow=none;endFill=0;startArrow=classic;startFill=1;" parent="WIyWlLk6GJQsqaUBKTNV-1" source="eS_6kq-HFucETP7qqi-i-82" target="eS_6kq-HFucETP7qqi-i-98" edge="1">
          <mxGeometry relative="1" as="geometry" />
        </mxCell>
        <mxCell id="eS_6kq-HFucETP7qqi-i-82" value="Customer" style="swimlane;fontStyle=2;align=center;verticalAlign=top;childLayout=stackLayout;horizontal=1;startSize=26;horizontalStack=0;resizeParent=1;resizeLast=0;collapsible=1;marginBottom=0;rounded=0;shadow=0;strokeWidth=1;" parent="WIyWlLk6GJQsqaUBKTNV-1" vertex="1">
          <mxGeometry x="-145" y="-1000" width="185" height="208" as="geometry">
            <mxRectangle x="230" y="140" width="160" height="26" as="alternateBounds" />
          </mxGeometry>
        </mxCell>
        <mxCell id="eS_6kq-HFucETP7qqi-i-83" value="String customerId" style="text;align=left;verticalAlign=top;spacingLeft=4;spacingRight=4;overflow=hidden;rotatable=0;points=[[0,0.5],[1,0.5]];portConstraint=eastwest;" parent="eS_6kq-HFucETP7qqi-i-82" vertex="1">
          <mxGeometry y="26" width="185" height="26" as="geometry" />
        </mxCell>
        <mxCell id="eS_6kq-HFucETP7qqi-i-84" value="String name" style="text;align=left;verticalAlign=top;spacingLeft=4;spacingRight=4;overflow=hidden;rotatable=0;points=[[0,0.5],[1,0.5]];portConstraint=eastwest;" parent="eS_6kq-HFucETP7qqi-i-82" vertex="1">
          <mxGeometry y="52" width="185" height="26" as="geometry" />
        </mxCell>
        <mxCell id="eS_6kq-HFucETP7qqi-i-86" value="String lastName" style="text;align=left;verticalAlign=top;spacingLeft=4;spacingRight=4;overflow=hidden;rotatable=0;points=[[0,0.5],[1,0.5]];portConstraint=eastwest;" parent="eS_6kq-HFucETP7qqi-i-82" vertex="1">
          <mxGeometry y="78" width="185" height="26" as="geometry" />
        </mxCell>
        <mxCell id="eS_6kq-HFucETP7qqi-i-87" value="String address" style="text;align=left;verticalAlign=top;spacingLeft=4;spacingRight=4;overflow=hidden;rotatable=0;points=[[0,0.5],[1,0.5]];portConstraint=eastwest;" parent="eS_6kq-HFucETP7qqi-i-82" vertex="1">
          <mxGeometry y="104" width="185" height="26" as="geometry" />
        </mxCell>
        <mxCell id="eS_6kq-HFucETP7qqi-i-85" value="String email" style="text;align=left;verticalAlign=top;spacingLeft=4;spacingRight=4;overflow=hidden;rotatable=0;points=[[0,0.5],[1,0.5]];portConstraint=eastwest;" parent="eS_6kq-HFucETP7qqi-i-82" vertex="1">
          <mxGeometry y="130" width="185" height="26" as="geometry" />
        </mxCell>
        <mxCell id="eS_6kq-HFucETP7qqi-i-96" value="String mobilePhone" style="text;align=left;verticalAlign=top;spacingLeft=4;spacingRight=4;overflow=hidden;rotatable=0;points=[[0,0.5],[1,0.5]];portConstraint=eastwest;" parent="eS_6kq-HFucETP7qqi-i-82" vertex="1">
          <mxGeometry y="156" width="185" height="26" as="geometry" />
        </mxCell>
        <mxCell id="eS_6kq-HFucETP7qqi-i-88" value="boolean needsInvoice" style="text;align=left;verticalAlign=top;spacingLeft=4;spacingRight=4;overflow=hidden;rotatable=0;points=[[0,0.5],[1,0.5]];portConstraint=eastwest;" parent="eS_6kq-HFucETP7qqi-i-82" vertex="1">
          <mxGeometry y="182" width="185" height="26" as="geometry" />
        </mxCell>
        <mxCell id="eS_6kq-HFucETP7qqi-i-203" style="edgeStyle=orthogonalEdgeStyle;rounded=0;orthogonalLoop=1;jettySize=auto;html=1;entryX=0.5;entryY=0;entryDx=0;entryDy=0;endArrow=none;endFill=0;startArrow=classic;startFill=1;" parent="WIyWlLk6GJQsqaUBKTNV-1" source="eS_6kq-HFucETP7qqi-i-89" target="eS_6kq-HFucETP7qqi-i-98" edge="1">
          <mxGeometry relative="1" as="geometry" />
        </mxCell>
        <mxCell id="eS_6kq-HFucETP7qqi-i-89" value="CustomerFilters" style="swimlane;fontStyle=2;align=center;verticalAlign=top;childLayout=stackLayout;horizontal=1;startSize=26;horizontalStack=0;resizeParent=1;resizeLast=0;collapsible=1;marginBottom=0;rounded=0;shadow=0;strokeWidth=1;" parent="WIyWlLk6GJQsqaUBKTNV-1" vertex="1">
          <mxGeometry x="57.5" y="-982" width="185" height="190" as="geometry">
            <mxRectangle x="230" y="140" width="160" height="26" as="alternateBounds" />
          </mxGeometry>
        </mxCell>
        <mxCell id="eS_6kq-HFucETP7qqi-i-91" value="String name" style="text;align=left;verticalAlign=top;spacingLeft=4;spacingRight=4;overflow=hidden;rotatable=0;points=[[0,0.5],[1,0.5]];portConstraint=eastwest;" parent="eS_6kq-HFucETP7qqi-i-89" vertex="1">
          <mxGeometry y="26" width="185" height="26" as="geometry" />
        </mxCell>
        <mxCell id="eS_6kq-HFucETP7qqi-i-92" value="String lastName" style="text;align=left;verticalAlign=top;spacingLeft=4;spacingRight=4;overflow=hidden;rotatable=0;points=[[0,0.5],[1,0.5]];portConstraint=eastwest;" parent="eS_6kq-HFucETP7qqi-i-89" vertex="1">
          <mxGeometry y="52" width="185" height="26" as="geometry" />
        </mxCell>
        <mxCell id="eS_6kq-HFucETP7qqi-i-93" value="String address" style="text;align=left;verticalAlign=top;spacingLeft=4;spacingRight=4;overflow=hidden;rotatable=0;points=[[0,0.5],[1,0.5]];portConstraint=eastwest;" parent="eS_6kq-HFucETP7qqi-i-89" vertex="1">
          <mxGeometry y="78" width="185" height="26" as="geometry" />
        </mxCell>
        <mxCell id="eS_6kq-HFucETP7qqi-i-97" value="String mobilePhone" style="text;align=left;verticalAlign=top;spacingLeft=4;spacingRight=4;overflow=hidden;rotatable=0;points=[[0,0.5],[1,0.5]];portConstraint=eastwest;" parent="eS_6kq-HFucETP7qqi-i-89" vertex="1">
          <mxGeometry y="104" width="185" height="26" as="geometry" />
        </mxCell>
        <mxCell id="eS_6kq-HFucETP7qqi-i-94" value="String email" style="text;align=left;verticalAlign=top;spacingLeft=4;spacingRight=4;overflow=hidden;rotatable=0;points=[[0,0.5],[1,0.5]];portConstraint=eastwest;" parent="eS_6kq-HFucETP7qqi-i-89" vertex="1">
          <mxGeometry y="130" width="185" height="26" as="geometry" />
        </mxCell>
        <mxCell id="eS_6kq-HFucETP7qqi-i-95" value="boolean needsInvoice" style="text;align=left;verticalAlign=top;spacingLeft=4;spacingRight=4;overflow=hidden;rotatable=0;points=[[0,0.5],[1,0.5]];portConstraint=eastwest;" parent="eS_6kq-HFucETP7qqi-i-89" vertex="1">
          <mxGeometry y="156" width="185" height="26" as="geometry" />
        </mxCell>
        <mxCell id="eS_6kq-HFucETP7qqi-i-207" style="edgeStyle=orthogonalEdgeStyle;rounded=0;orthogonalLoop=1;jettySize=auto;html=1;" parent="WIyWlLk6GJQsqaUBKTNV-1" source="eS_6kq-HFucETP7qqi-i-98" target="eS_6kq-HFucETP7qqi-i-48" edge="1">
          <mxGeometry relative="1" as="geometry" />
        </mxCell>
        <mxCell id="eS_6kq-HFucETP7qqi-i-98" value="CustomerResitory" style="swimlane;fontStyle=2;align=center;verticalAlign=top;childLayout=stackLayout;horizontal=1;startSize=26;horizontalStack=0;resizeParent=1;resizeLast=0;collapsible=1;marginBottom=0;rounded=0;shadow=0;strokeWidth=1;fillColor=#fff2cc;strokeColor=#d6b656;" parent="WIyWlLk6GJQsqaUBKTNV-1" vertex="1">
          <mxGeometry x="-100" y="-720" width="185" height="240" as="geometry">
            <mxRectangle x="230" y="140" width="160" height="26" as="alternateBounds" />
          </mxGeometry>
        </mxCell>
        <mxCell id="eS_6kq-HFucETP7qqi-i-99" value="List&lt;Customer&gt; findByCriteria&#xa;(List&lt;SearchCriteria&gt; filters);" style="text;align=left;verticalAlign=top;spacingLeft=4;spacingRight=4;overflow=hidden;rotatable=0;points=[[0,0.5],[1,0.5]];portConstraint=eastwest;fillColor=none;" parent="eS_6kq-HFucETP7qqi-i-98" vertex="1">
          <mxGeometry y="26" width="185" height="44" as="geometry" />
        </mxCell>
        <mxCell id="eS_6kq-HFucETP7qqi-i-100" value="Optional&lt;Customer&gt; &#xa;findById(String id);" style="text;align=left;verticalAlign=top;spacingLeft=4;spacingRight=4;overflow=hidden;rotatable=0;points=[[0,0.5],[1,0.5]];portConstraint=eastwest;fillColor=none;" parent="eS_6kq-HFucETP7qqi-i-98" vertex="1">
          <mxGeometry y="70" width="185" height="40" as="geometry" />
        </mxCell>
        <mxCell id="eS_6kq-HFucETP7qqi-i-101" value="void deleteById(String id);" style="text;align=left;verticalAlign=top;spacingLeft=4;spacingRight=4;overflow=hidden;rotatable=0;points=[[0,0.5],[1,0.5]];portConstraint=eastwest;fillColor=none;" parent="eS_6kq-HFucETP7qqi-i-98" vertex="1">
          <mxGeometry y="110" width="185" height="26" as="geometry" />
        </mxCell>
        <mxCell id="eS_6kq-HFucETP7qqi-i-102" value="Customer save(Customer &#xa;customer);" style="text;align=left;verticalAlign=top;spacingLeft=4;spacingRight=4;overflow=hidden;rotatable=0;points=[[0,0.5],[1,0.5]];portConstraint=eastwest;fillColor=none;" parent="eS_6kq-HFucETP7qqi-i-98" vertex="1">
          <mxGeometry y="136" width="185" height="34" as="geometry" />
        </mxCell>
        <mxCell id="eS_6kq-HFucETP7qqi-i-103" value="Customer merge(Customer &#xa;newCustomer, Customer &#xa;customer);" style="text;align=left;verticalAlign=top;spacingLeft=4;spacingRight=4;overflow=hidden;rotatable=0;points=[[0,0.5],[1,0.5]];portConstraint=eastwest;fillColor=none;" parent="eS_6kq-HFucETP7qqi-i-98" vertex="1">
          <mxGeometry y="170" width="185" height="60" as="geometry" />
        </mxCell>
        <mxCell id="eS_6kq-HFucETP7qqi-i-105" value="CustomerApiModel" style="swimlane;fontStyle=2;align=center;verticalAlign=top;childLayout=stackLayout;horizontal=1;startSize=26;horizontalStack=0;resizeParent=1;resizeLast=0;collapsible=1;marginBottom=0;rounded=0;shadow=0;strokeWidth=1;" parent="WIyWlLk6GJQsqaUBKTNV-1" vertex="1">
          <mxGeometry x="-980" y="-1067" width="185" height="208" as="geometry">
            <mxRectangle x="230" y="140" width="160" height="26" as="alternateBounds" />
          </mxGeometry>
        </mxCell>
        <mxCell id="eS_6kq-HFucETP7qqi-i-106" value="String customerId" style="text;align=left;verticalAlign=top;spacingLeft=4;spacingRight=4;overflow=hidden;rotatable=0;points=[[0,0.5],[1,0.5]];portConstraint=eastwest;" parent="eS_6kq-HFucETP7qqi-i-105" vertex="1">
          <mxGeometry y="26" width="185" height="26" as="geometry" />
        </mxCell>
        <mxCell id="eS_6kq-HFucETP7qqi-i-107" value="String name" style="text;align=left;verticalAlign=top;spacingLeft=4;spacingRight=4;overflow=hidden;rotatable=0;points=[[0,0.5],[1,0.5]];portConstraint=eastwest;" parent="eS_6kq-HFucETP7qqi-i-105" vertex="1">
          <mxGeometry y="52" width="185" height="26" as="geometry" />
        </mxCell>
        <mxCell id="eS_6kq-HFucETP7qqi-i-108" value="String lastName" style="text;align=left;verticalAlign=top;spacingLeft=4;spacingRight=4;overflow=hidden;rotatable=0;points=[[0,0.5],[1,0.5]];portConstraint=eastwest;" parent="eS_6kq-HFucETP7qqi-i-105" vertex="1">
          <mxGeometry y="78" width="185" height="26" as="geometry" />
        </mxCell>
        <mxCell id="eS_6kq-HFucETP7qqi-i-109" value="String address" style="text;align=left;verticalAlign=top;spacingLeft=4;spacingRight=4;overflow=hidden;rotatable=0;points=[[0,0.5],[1,0.5]];portConstraint=eastwest;" parent="eS_6kq-HFucETP7qqi-i-105" vertex="1">
          <mxGeometry y="104" width="185" height="26" as="geometry" />
        </mxCell>
        <mxCell id="eS_6kq-HFucETP7qqi-i-110" value="String email" style="text;align=left;verticalAlign=top;spacingLeft=4;spacingRight=4;overflow=hidden;rotatable=0;points=[[0,0.5],[1,0.5]];portConstraint=eastwest;" parent="eS_6kq-HFucETP7qqi-i-105" vertex="1">
          <mxGeometry y="130" width="185" height="26" as="geometry" />
        </mxCell>
        <mxCell id="eS_6kq-HFucETP7qqi-i-111" value="String mobilePhone" style="text;align=left;verticalAlign=top;spacingLeft=4;spacingRight=4;overflow=hidden;rotatable=0;points=[[0,0.5],[1,0.5]];portConstraint=eastwest;" parent="eS_6kq-HFucETP7qqi-i-105" vertex="1">
          <mxGeometry y="156" width="185" height="26" as="geometry" />
        </mxCell>
        <mxCell id="eS_6kq-HFucETP7qqi-i-112" value="boolean needsInvoice" style="text;align=left;verticalAlign=top;spacingLeft=4;spacingRight=4;overflow=hidden;rotatable=0;points=[[0,0.5],[1,0.5]];portConstraint=eastwest;" parent="eS_6kq-HFucETP7qqi-i-105" vertex="1">
          <mxGeometry y="182" width="185" height="26" as="geometry" />
        </mxCell>
        <mxCell id="eS_6kq-HFucETP7qqi-i-113" value="CustomerFilterApiModel" style="swimlane;fontStyle=2;align=center;verticalAlign=top;childLayout=stackLayout;horizontal=1;startSize=26;horizontalStack=0;resizeParent=1;resizeLast=0;collapsible=1;marginBottom=0;rounded=0;shadow=0;strokeWidth=1;" parent="WIyWlLk6GJQsqaUBKTNV-1" vertex="1">
          <mxGeometry x="-1210" y="-1071" width="185" height="208" as="geometry">
            <mxRectangle x="230" y="140" width="160" height="26" as="alternateBounds" />
          </mxGeometry>
        </mxCell>
        <mxCell id="eS_6kq-HFucETP7qqi-i-114" value="String customerId" style="text;align=left;verticalAlign=top;spacingLeft=4;spacingRight=4;overflow=hidden;rotatable=0;points=[[0,0.5],[1,0.5]];portConstraint=eastwest;" parent="eS_6kq-HFucETP7qqi-i-113" vertex="1">
          <mxGeometry y="26" width="185" height="26" as="geometry" />
        </mxCell>
        <mxCell id="eS_6kq-HFucETP7qqi-i-115" value="String name" style="text;align=left;verticalAlign=top;spacingLeft=4;spacingRight=4;overflow=hidden;rotatable=0;points=[[0,0.5],[1,0.5]];portConstraint=eastwest;" parent="eS_6kq-HFucETP7qqi-i-113" vertex="1">
          <mxGeometry y="52" width="185" height="26" as="geometry" />
        </mxCell>
        <mxCell id="eS_6kq-HFucETP7qqi-i-116" value="String lastName" style="text;align=left;verticalAlign=top;spacingLeft=4;spacingRight=4;overflow=hidden;rotatable=0;points=[[0,0.5],[1,0.5]];portConstraint=eastwest;" parent="eS_6kq-HFucETP7qqi-i-113" vertex="1">
          <mxGeometry y="78" width="185" height="26" as="geometry" />
        </mxCell>
        <mxCell id="eS_6kq-HFucETP7qqi-i-117" value="String address" style="text;align=left;verticalAlign=top;spacingLeft=4;spacingRight=4;overflow=hidden;rotatable=0;points=[[0,0.5],[1,0.5]];portConstraint=eastwest;" parent="eS_6kq-HFucETP7qqi-i-113" vertex="1">
          <mxGeometry y="104" width="185" height="26" as="geometry" />
        </mxCell>
        <mxCell id="eS_6kq-HFucETP7qqi-i-118" value="String email" style="text;align=left;verticalAlign=top;spacingLeft=4;spacingRight=4;overflow=hidden;rotatable=0;points=[[0,0.5],[1,0.5]];portConstraint=eastwest;" parent="eS_6kq-HFucETP7qqi-i-113" vertex="1">
          <mxGeometry y="130" width="185" height="26" as="geometry" />
        </mxCell>
        <mxCell id="eS_6kq-HFucETP7qqi-i-119" value="String mobilePhone" style="text;align=left;verticalAlign=top;spacingLeft=4;spacingRight=4;overflow=hidden;rotatable=0;points=[[0,0.5],[1,0.5]];portConstraint=eastwest;" parent="eS_6kq-HFucETP7qqi-i-113" vertex="1">
          <mxGeometry y="156" width="185" height="26" as="geometry" />
        </mxCell>
        <mxCell id="eS_6kq-HFucETP7qqi-i-120" value="boolean needsInvoice" style="text;align=left;verticalAlign=top;spacingLeft=4;spacingRight=4;overflow=hidden;rotatable=0;points=[[0,0.5],[1,0.5]];portConstraint=eastwest;" parent="eS_6kq-HFucETP7qqi-i-113" vertex="1">
          <mxGeometry y="182" width="185" height="26" as="geometry" />
        </mxCell>
        <mxCell id="eS_6kq-HFucETP7qqi-i-121" value="CustomerEntity" style="swimlane;fontStyle=2;align=center;verticalAlign=top;childLayout=stackLayout;horizontal=1;startSize=26;horizontalStack=0;resizeParent=1;resizeLast=0;collapsible=1;marginBottom=0;rounded=0;shadow=0;strokeWidth=1;" parent="WIyWlLk6GJQsqaUBKTNV-1" vertex="1">
          <mxGeometry x="520" y="-1018" width="185" height="208" as="geometry">
            <mxRectangle x="230" y="140" width="160" height="26" as="alternateBounds" />
          </mxGeometry>
        </mxCell>
        <mxCell id="eS_6kq-HFucETP7qqi-i-122" value="String customerId" style="text;align=left;verticalAlign=top;spacingLeft=4;spacingRight=4;overflow=hidden;rotatable=0;points=[[0,0.5],[1,0.5]];portConstraint=eastwest;" parent="eS_6kq-HFucETP7qqi-i-121" vertex="1">
          <mxGeometry y="26" width="185" height="26" as="geometry" />
        </mxCell>
        <mxCell id="eS_6kq-HFucETP7qqi-i-123" value="String name" style="text;align=left;verticalAlign=top;spacingLeft=4;spacingRight=4;overflow=hidden;rotatable=0;points=[[0,0.5],[1,0.5]];portConstraint=eastwest;" parent="eS_6kq-HFucETP7qqi-i-121" vertex="1">
          <mxGeometry y="52" width="185" height="26" as="geometry" />
        </mxCell>
        <mxCell id="eS_6kq-HFucETP7qqi-i-124" value="String lastName" style="text;align=left;verticalAlign=top;spacingLeft=4;spacingRight=4;overflow=hidden;rotatable=0;points=[[0,0.5],[1,0.5]];portConstraint=eastwest;" parent="eS_6kq-HFucETP7qqi-i-121" vertex="1">
          <mxGeometry y="78" width="185" height="26" as="geometry" />
        </mxCell>
        <mxCell id="eS_6kq-HFucETP7qqi-i-125" value="String address" style="text;align=left;verticalAlign=top;spacingLeft=4;spacingRight=4;overflow=hidden;rotatable=0;points=[[0,0.5],[1,0.5]];portConstraint=eastwest;" parent="eS_6kq-HFucETP7qqi-i-121" vertex="1">
          <mxGeometry y="104" width="185" height="26" as="geometry" />
        </mxCell>
        <mxCell id="eS_6kq-HFucETP7qqi-i-126" value="String email" style="text;align=left;verticalAlign=top;spacingLeft=4;spacingRight=4;overflow=hidden;rotatable=0;points=[[0,0.5],[1,0.5]];portConstraint=eastwest;" parent="eS_6kq-HFucETP7qqi-i-121" vertex="1">
          <mxGeometry y="130" width="185" height="26" as="geometry" />
        </mxCell>
        <mxCell id="eS_6kq-HFucETP7qqi-i-127" value="String mobilePhone" style="text;align=left;verticalAlign=top;spacingLeft=4;spacingRight=4;overflow=hidden;rotatable=0;points=[[0,0.5],[1,0.5]];portConstraint=eastwest;" parent="eS_6kq-HFucETP7qqi-i-121" vertex="1">
          <mxGeometry y="156" width="185" height="26" as="geometry" />
        </mxCell>
        <mxCell id="eS_6kq-HFucETP7qqi-i-128" value="boolean needsInvoice" style="text;align=left;verticalAlign=top;spacingLeft=4;spacingRight=4;overflow=hidden;rotatable=0;points=[[0,0.5],[1,0.5]];portConstraint=eastwest;" parent="eS_6kq-HFucETP7qqi-i-121" vertex="1">
          <mxGeometry y="182" width="185" height="26" as="geometry" />
        </mxCell>
        <mxCell id="eS_6kq-HFucETP7qqi-i-129" value="PredicateBuilder&lt;T&gt;" style="swimlane;fontStyle=2;align=center;verticalAlign=top;childLayout=stackLayout;horizontal=1;startSize=26;horizontalStack=0;resizeParent=1;resizeLast=0;collapsible=1;marginBottom=0;rounded=0;shadow=0;strokeWidth=1;" parent="WIyWlLk6GJQsqaUBKTNV-1" vertex="1">
          <mxGeometry x="1131" y="-700" width="220" height="86" as="geometry">
            <mxRectangle x="230" y="140" width="160" height="26" as="alternateBounds" />
          </mxGeometry>
        </mxCell>
        <mxCell id="eS_6kq-HFucETP7qqi-i-130" value="BooleanExpression getBooleanBuilder&#xa;(SimpleExpression&lt;T&gt; path, &#xa;SearchCriteria searchCriteria)" style="text;align=left;verticalAlign=top;spacingLeft=4;spacingRight=4;overflow=hidden;rotatable=0;points=[[0,0.5],[1,0.5]];portConstraint=eastwest;fillColor=none;" parent="eS_6kq-HFucETP7qqi-i-129" vertex="1">
          <mxGeometry y="26" width="220" height="54" as="geometry" />
        </mxCell>
        <mxCell id="eS_6kq-HFucETP7qqi-i-131" value="QueryField" style="swimlane;fontStyle=2;align=center;verticalAlign=top;childLayout=stackLayout;horizontal=1;startSize=26;horizontalStack=0;resizeParent=1;resizeLast=0;collapsible=1;marginBottom=0;rounded=0;shadow=0;strokeWidth=1;fillColor=#fff2cc;strokeColor=#d6b656;" parent="WIyWlLk6GJQsqaUBKTNV-1" vertex="1">
          <mxGeometry x="540" y="-660" width="220" height="106" as="geometry">
            <mxRectangle x="230" y="140" width="160" height="26" as="alternateBounds" />
          </mxGeometry>
        </mxCell>
        <mxCell id="eS_6kq-HFucETP7qqi-i-132" value="String getFieldName()" style="text;align=left;verticalAlign=top;spacingLeft=4;spacingRight=4;overflow=hidden;rotatable=0;points=[[0,0.5],[1,0.5]];portConstraint=eastwest;fillColor=none;" parent="eS_6kq-HFucETP7qqi-i-131" vertex="1">
          <mxGeometry y="26" width="220" height="24" as="geometry" />
        </mxCell>
        <mxCell id="eS_6kq-HFucETP7qqi-i-133" value="void addToQuery(BooleanBuilder &#xa;booleanBuilder, SearchCriteria &#xa;searchCriteria);" style="text;align=left;verticalAlign=top;spacingLeft=4;spacingRight=4;overflow=hidden;rotatable=0;points=[[0,0.5],[1,0.5]];portConstraint=eastwest;fillColor=none;" parent="eS_6kq-HFucETP7qqi-i-131" vertex="1">
          <mxGeometry y="50" width="220" height="50" as="geometry" />
        </mxCell>
        <mxCell id="eS_6kq-HFucETP7qqi-i-246" style="edgeStyle=orthogonalEdgeStyle;rounded=0;orthogonalLoop=1;jettySize=auto;html=1;entryX=0;entryY=0.5;entryDx=0;entryDy=0;" parent="WIyWlLk6GJQsqaUBKTNV-1" source="eS_6kq-HFucETP7qqi-i-137" target="eS_6kq-HFucETP7qqi-i-130" edge="1">
          <mxGeometry relative="1" as="geometry" />
        </mxCell>
        <mxCell id="eS_6kq-HFucETP7qqi-i-137" value="CustomerEmalField" style="swimlane;fontStyle=2;align=center;verticalAlign=top;childLayout=stackLayout;horizontal=1;startSize=26;horizontalStack=0;resizeParent=1;resizeLast=0;collapsible=1;marginBottom=0;rounded=0;shadow=0;strokeWidth=1;" parent="WIyWlLk6GJQsqaUBKTNV-1" vertex="1">
          <mxGeometry x="827" y="-790" width="240" height="130" as="geometry">
            <mxRectangle x="230" y="140" width="160" height="26" as="alternateBounds" />
          </mxGeometry>
        </mxCell>
        <mxCell id="eS_6kq-HFucETP7qqi-i-138" value="PredicateBuilder&lt;String&gt; predicateBuilder" style="text;align=left;verticalAlign=top;spacingLeft=4;spacingRight=4;overflow=hidden;rotatable=0;points=[[0,0.5],[1,0.5]];portConstraint=eastwest;fillColor=none;" parent="eS_6kq-HFucETP7qqi-i-137" vertex="1">
          <mxGeometry y="26" width="240" height="22" as="geometry" />
        </mxCell>
        <mxCell id="eS_6kq-HFucETP7qqi-i-139" value="" style="line;html=1;strokeWidth=1;align=left;verticalAlign=middle;spacingTop=-1;spacingLeft=3;spacingRight=3;rotatable=0;labelPosition=right;points=[];portConstraint=eastwest;" parent="eS_6kq-HFucETP7qqi-i-137" vertex="1">
          <mxGeometry y="48" width="240" height="8" as="geometry" />
        </mxCell>
        <mxCell id="eS_6kq-HFucETP7qqi-i-135" value="String getFieldName()" style="text;align=left;verticalAlign=top;spacingLeft=4;spacingRight=4;overflow=hidden;rotatable=0;points=[[0,0.5],[1,0.5]];portConstraint=eastwest;fillColor=none;" parent="eS_6kq-HFucETP7qqi-i-137" vertex="1">
          <mxGeometry y="56" width="240" height="24" as="geometry" />
        </mxCell>
        <mxCell id="eS_6kq-HFucETP7qqi-i-136" value="void addToQuery(BooleanBuilder &#xa;booleanBuilder, SearchCriteria &#xa;searchCriteria);" style="text;align=left;verticalAlign=top;spacingLeft=4;spacingRight=4;overflow=hidden;rotatable=0;points=[[0,0.5],[1,0.5]];portConstraint=eastwest;fillColor=none;" parent="eS_6kq-HFucETP7qqi-i-137" vertex="1">
          <mxGeometry y="80" width="240" height="50" as="geometry" />
        </mxCell>
        <mxCell id="eS_6kq-HFucETP7qqi-i-141" value="CustomerRepositorySpringJpa" style="swimlane;fontStyle=2;align=center;verticalAlign=top;childLayout=stackLayout;horizontal=1;startSize=26;horizontalStack=0;resizeParent=1;resizeLast=0;collapsible=1;marginBottom=0;rounded=0;shadow=0;strokeWidth=1;fillColor=#fff2cc;strokeColor=#d6b656;" parent="WIyWlLk6GJQsqaUBKTNV-1" vertex="1">
          <mxGeometry x="278" y="-832" width="210" height="52" as="geometry">
            <mxRectangle x="230" y="140" width="160" height="26" as="alternateBounds" />
          </mxGeometry>
        </mxCell>
        <mxCell id="eS_6kq-HFucETP7qqi-i-256" style="edgeStyle=orthogonalEdgeStyle;rounded=0;orthogonalLoop=1;jettySize=auto;html=1;entryX=0.5;entryY=0;entryDx=0;entryDy=0;" parent="WIyWlLk6GJQsqaUBKTNV-1" source="eS_6kq-HFucETP7qqi-i-143" target="eS_6kq-HFucETP7qqi-i-113" edge="1">
          <mxGeometry relative="1" as="geometry" />
        </mxCell>
        <mxCell id="eS_6kq-HFucETP7qqi-i-257" style="edgeStyle=orthogonalEdgeStyle;rounded=0;orthogonalLoop=1;jettySize=auto;html=1;" parent="WIyWlLk6GJQsqaUBKTNV-1" source="eS_6kq-HFucETP7qqi-i-143" target="eS_6kq-HFucETP7qqi-i-105" edge="1">
          <mxGeometry relative="1" as="geometry" />
        </mxCell>
        <mxCell id="eS_6kq-HFucETP7qqi-i-258" style="edgeStyle=orthogonalEdgeStyle;rounded=0;orthogonalLoop=1;jettySize=auto;html=1;" parent="WIyWlLk6GJQsqaUBKTNV-1" source="eS_6kq-HFucETP7qqi-i-143" target="eS_6kq-HFucETP7qqi-i-82" edge="1">
          <mxGeometry relative="1" as="geometry" />
        </mxCell>
        <mxCell id="eS_6kq-HFucETP7qqi-i-260" style="edgeStyle=orthogonalEdgeStyle;rounded=0;orthogonalLoop=1;jettySize=auto;html=1;" parent="WIyWlLk6GJQsqaUBKTNV-1" source="eS_6kq-HFucETP7qqi-i-143" target="eS_6kq-HFucETP7qqi-i-121" edge="1">
          <mxGeometry relative="1" as="geometry" />
        </mxCell>
        <mxCell id="eS_6kq-HFucETP7qqi-i-143" value="CustomerInfrastructureMapper" style="swimlane;fontStyle=2;align=center;verticalAlign=top;childLayout=stackLayout;horizontal=1;startSize=26;horizontalStack=0;resizeParent=1;resizeLast=0;collapsible=1;marginBottom=0;rounded=0;shadow=0;strokeWidth=1;fillColor=default;" parent="WIyWlLk6GJQsqaUBKTNV-1" vertex="1">
          <mxGeometry x="-690" y="-1420" width="330" height="290" as="geometry">
            <mxRectangle x="230" y="140" width="160" height="26" as="alternateBounds" />
          </mxGeometry>
        </mxCell>
        <mxCell id="eS_6kq-HFucETP7qqi-i-145" value="Customer map(CustomerApiModel customerApiModel);" style="text;align=left;verticalAlign=top;spacingLeft=4;spacingRight=4;overflow=hidden;rotatable=0;points=[[0,0.5],[1,0.5]];portConstraint=eastwest;fillColor=none;" parent="eS_6kq-HFucETP7qqi-i-143" vertex="1">
          <mxGeometry y="26" width="330" height="30" as="geometry" />
        </mxCell>
        <mxCell id="eS_6kq-HFucETP7qqi-i-146" value="List&lt;CustomerApiModel&gt; map(List&lt;Customer&gt; customers);" style="text;align=left;verticalAlign=top;spacingLeft=4;spacingRight=4;overflow=hidden;rotatable=0;points=[[0,0.5],[1,0.5]];portConstraint=eastwest;fillColor=none;" parent="eS_6kq-HFucETP7qqi-i-143" vertex="1">
          <mxGeometry y="56" width="330" height="30" as="geometry" />
        </mxCell>
        <mxCell id="eS_6kq-HFucETP7qqi-i-148" value="CustomerApiModel map(Customer customers);" style="text;align=left;verticalAlign=top;spacingLeft=4;spacingRight=4;overflow=hidden;rotatable=0;points=[[0,0.5],[1,0.5]];portConstraint=eastwest;fillColor=none;" parent="eS_6kq-HFucETP7qqi-i-143" vertex="1">
          <mxGeometry y="86" width="330" height="30" as="geometry" />
        </mxCell>
        <mxCell id="eS_6kq-HFucETP7qqi-i-147" value="List&lt;Customer&gt; mapEntityList(List&lt;CustomerEntity&gt; &#xa;customerEntity);" style="text;align=left;verticalAlign=top;spacingLeft=4;spacingRight=4;overflow=hidden;rotatable=0;points=[[0,0.5],[1,0.5]];portConstraint=eastwest;fillColor=none;" parent="eS_6kq-HFucETP7qqi-i-143" vertex="1">
          <mxGeometry y="116" width="330" height="40" as="geometry" />
        </mxCell>
        <mxCell id="eS_6kq-HFucETP7qqi-i-149" value="Customer map(CustomerEntity customerEntity);" style="text;align=left;verticalAlign=top;spacingLeft=4;spacingRight=4;overflow=hidden;rotatable=0;points=[[0,0.5],[1,0.5]];portConstraint=eastwest;fillColor=none;" parent="eS_6kq-HFucETP7qqi-i-143" vertex="1">
          <mxGeometry y="156" width="330" height="30" as="geometry" />
        </mxCell>
        <mxCell id="eS_6kq-HFucETP7qqi-i-150" value="CustomerEntity mapToEntity(Customer customer);" style="text;align=left;verticalAlign=top;spacingLeft=4;spacingRight=4;overflow=hidden;rotatable=0;points=[[0,0.5],[1,0.5]];portConstraint=eastwest;fillColor=none;" parent="eS_6kq-HFucETP7qqi-i-143" vertex="1">
          <mxGeometry y="186" width="330" height="30" as="geometry" />
        </mxCell>
        <mxCell id="eS_6kq-HFucETP7qqi-i-151" value="Customer merge(Customer newCustomerData, &#xa;Customer customer);" style="text;align=left;verticalAlign=top;spacingLeft=4;spacingRight=4;overflow=hidden;rotatable=0;points=[[0,0.5],[1,0.5]];portConstraint=eastwest;fillColor=none;" parent="eS_6kq-HFucETP7qqi-i-143" vertex="1">
          <mxGeometry y="216" width="330" height="30" as="geometry" />
        </mxCell>
        <mxCell id="eS_6kq-HFucETP7qqi-i-197" style="edgeStyle=orthogonalEdgeStyle;rounded=0;orthogonalLoop=1;jettySize=auto;html=1;entryX=0.5;entryY=1;entryDx=0;entryDy=0;endArrow=none;endFill=0;" parent="WIyWlLk6GJQsqaUBKTNV-1" source="eS_6kq-HFucETP7qqi-i-153" target="eS_6kq-HFucETP7qqi-i-141" edge="1">
          <mxGeometry relative="1" as="geometry" />
        </mxCell>
        <mxCell id="eS_6kq-HFucETP7qqi-i-237" style="edgeStyle=orthogonalEdgeStyle;rounded=0;orthogonalLoop=1;jettySize=auto;html=1;entryX=0;entryY=0.5;entryDx=0;entryDy=0;" parent="WIyWlLk6GJQsqaUBKTNV-1" source="eS_6kq-HFucETP7qqi-i-153" target="eS_6kq-HFucETP7qqi-i-133" edge="1">
          <mxGeometry relative="1" as="geometry" />
        </mxCell>
        <mxCell id="eS_6kq-HFucETP7qqi-i-153" value="CustomerJpaRepository" style="swimlane;fontStyle=2;align=center;verticalAlign=top;childLayout=stackLayout;horizontal=1;startSize=26;horizontalStack=0;resizeParent=1;resizeLast=0;collapsible=1;marginBottom=0;rounded=0;shadow=0;strokeWidth=1;" parent="WIyWlLk6GJQsqaUBKTNV-1" vertex="1">
          <mxGeometry x="263" y="-750" width="240" height="366" as="geometry">
            <mxRectangle x="230" y="140" width="160" height="26" as="alternateBounds" />
          </mxGeometry>
        </mxCell>
        <mxCell id="eS_6kq-HFucETP7qqi-i-154" value="List&lt;QueryField&gt; queryFields" style="text;align=left;verticalAlign=top;spacingLeft=4;spacingRight=4;overflow=hidden;rotatable=0;points=[[0,0.5],[1,0.5]];portConstraint=eastwest;fillColor=none;" parent="eS_6kq-HFucETP7qqi-i-153" vertex="1">
          <mxGeometry y="26" width="240" height="26" as="geometry" />
        </mxCell>
        <mxCell id="eS_6kq-HFucETP7qqi-i-157" value="Map&lt;String, QueryField&gt; queryFieldMap" style="text;align=left;verticalAlign=top;spacingLeft=4;spacingRight=4;overflow=hidden;rotatable=0;points=[[0,0.5],[1,0.5]];portConstraint=eastwest;fillColor=none;" parent="eS_6kq-HFucETP7qqi-i-153" vertex="1">
          <mxGeometry y="52" width="240" height="26" as="geometry" />
        </mxCell>
        <mxCell id="eS_6kq-HFucETP7qqi-i-158" value=" CustomerRepositorySpringJpa &#xa;customerRepositorySpringJpa" style="text;align=left;verticalAlign=top;spacingLeft=4;spacingRight=4;overflow=hidden;rotatable=0;points=[[0,0.5],[1,0.5]];portConstraint=eastwest;fillColor=none;" parent="eS_6kq-HFucETP7qqi-i-153" vertex="1">
          <mxGeometry y="78" width="240" height="42" as="geometry" />
        </mxCell>
        <mxCell id="eS_6kq-HFucETP7qqi-i-159" value="CustomerInfrastructureMapper mapper" style="text;align=left;verticalAlign=top;spacingLeft=4;spacingRight=4;overflow=hidden;rotatable=0;points=[[0,0.5],[1,0.5]];portConstraint=eastwest;fillColor=none;" parent="eS_6kq-HFucETP7qqi-i-153" vertex="1">
          <mxGeometry y="120" width="240" height="42" as="geometry" />
        </mxCell>
        <mxCell id="eS_6kq-HFucETP7qqi-i-155" value="" style="line;html=1;strokeWidth=1;align=left;verticalAlign=middle;spacingTop=-1;spacingLeft=3;spacingRight=3;rotatable=0;labelPosition=right;points=[];portConstraint=eastwest;" parent="eS_6kq-HFucETP7qqi-i-153" vertex="1">
          <mxGeometry y="162" width="240" height="8" as="geometry" />
        </mxCell>
        <mxCell id="eS_6kq-HFucETP7qqi-i-156" value="save(Customer customer)" style="text;align=left;verticalAlign=top;spacingLeft=4;spacingRight=4;overflow=hidden;rotatable=0;points=[[0,0.5],[1,0.5]];portConstraint=eastwest;" parent="eS_6kq-HFucETP7qqi-i-153" vertex="1">
          <mxGeometry y="170" width="240" height="26" as="geometry" />
        </mxCell>
        <mxCell id="eS_6kq-HFucETP7qqi-i-162" value="void deleteById(String id);" style="text;align=left;verticalAlign=top;spacingLeft=4;spacingRight=4;overflow=hidden;rotatable=0;points=[[0,0.5],[1,0.5]];portConstraint=eastwest;fillColor=none;" parent="eS_6kq-HFucETP7qqi-i-153" vertex="1">
          <mxGeometry y="196" width="240" height="26" as="geometry" />
        </mxCell>
        <mxCell id="eS_6kq-HFucETP7qqi-i-161" value="Optional&lt;Customer&gt; &#xa;findById(String id);" style="text;align=left;verticalAlign=top;spacingLeft=4;spacingRight=4;overflow=hidden;rotatable=0;points=[[0,0.5],[1,0.5]];portConstraint=eastwest;fillColor=none;" parent="eS_6kq-HFucETP7qqi-i-153" vertex="1">
          <mxGeometry y="222" width="240" height="40" as="geometry" />
        </mxCell>
        <mxCell id="eS_6kq-HFucETP7qqi-i-163" value="Customer merge(Customer &#xa;newCustomer, Customer &#xa;customer);" style="text;align=left;verticalAlign=top;spacingLeft=4;spacingRight=4;overflow=hidden;rotatable=0;points=[[0,0.5],[1,0.5]];portConstraint=eastwest;fillColor=none;" parent="eS_6kq-HFucETP7qqi-i-153" vertex="1">
          <mxGeometry y="262" width="240" height="60" as="geometry" />
        </mxCell>
        <mxCell id="eS_6kq-HFucETP7qqi-i-160" value="List&lt;Customer&gt; findByCriteria&#xa;(List&lt;SearchCriteria&gt; filters);" style="text;align=left;verticalAlign=top;spacingLeft=4;spacingRight=4;overflow=hidden;rotatable=0;points=[[0,0.5],[1,0.5]];portConstraint=eastwest;fillColor=none;" parent="eS_6kq-HFucETP7qqi-i-153" vertex="1">
          <mxGeometry y="322" width="240" height="44" as="geometry" />
        </mxCell>
        <mxCell id="eS_6kq-HFucETP7qqi-i-164" value="CustomerController" style="swimlane;fontStyle=2;align=center;verticalAlign=top;childLayout=stackLayout;horizontal=1;startSize=26;horizontalStack=0;resizeParent=1;resizeLast=0;collapsible=1;marginBottom=0;rounded=0;shadow=0;strokeWidth=1;" parent="WIyWlLk6GJQsqaUBKTNV-1" vertex="1">
          <mxGeometry x="-1187.5" y="-780" width="275" height="456" as="geometry">
            <mxRectangle x="230" y="140" width="160" height="26" as="alternateBounds" />
          </mxGeometry>
        </mxCell>
        <mxCell id="eS_6kq-HFucETP7qqi-i-168" value="CustomerInfrastructureMapper mapper" style="text;align=left;verticalAlign=top;spacingLeft=4;spacingRight=4;overflow=hidden;rotatable=0;points=[[0,0.5],[1,0.5]];portConstraint=eastwest;fillColor=none;" parent="eS_6kq-HFucETP7qqi-i-164" vertex="1">
          <mxGeometry y="26" width="275" height="24" as="geometry" />
        </mxCell>
        <mxCell id="eS_6kq-HFucETP7qqi-i-166" value="FindCustomersUseCase findCustomersUseCase" style="text;align=left;verticalAlign=top;spacingLeft=4;spacingRight=4;overflow=hidden;rotatable=0;points=[[0,0.5],[1,0.5]];portConstraint=eastwest;fillColor=none;" parent="eS_6kq-HFucETP7qqi-i-164" vertex="1">
          <mxGeometry y="50" width="275" height="26" as="geometry" />
        </mxCell>
        <mxCell id="eS_6kq-HFucETP7qqi-i-167" value="FindCustomerByIdUseCase findCustomer&#xa;ByIdUseCase" style="text;align=left;verticalAlign=top;spacingLeft=4;spacingRight=4;overflow=hidden;rotatable=0;points=[[0,0.5],[1,0.5]];portConstraint=eastwest;fillColor=none;" parent="eS_6kq-HFucETP7qqi-i-164" vertex="1">
          <mxGeometry y="76" width="275" height="44" as="geometry" />
        </mxCell>
        <mxCell id="eS_6kq-HFucETP7qqi-i-175" value="DeleteCustomerUseCase &#xa;deleteCustomerUseCase" style="text;align=left;verticalAlign=top;spacingLeft=4;spacingRight=4;overflow=hidden;rotatable=0;points=[[0,0.5],[1,0.5]];portConstraint=eastwest;fillColor=none;" parent="eS_6kq-HFucETP7qqi-i-164" vertex="1">
          <mxGeometry y="120" width="275" height="44" as="geometry" />
        </mxCell>
        <mxCell id="eS_6kq-HFucETP7qqi-i-176" value="CreateCustomerUseCase &#xa;createCustomerUseCase" style="text;align=left;verticalAlign=top;spacingLeft=4;spacingRight=4;overflow=hidden;rotatable=0;points=[[0,0.5],[1,0.5]];portConstraint=eastwest;fillColor=none;" parent="eS_6kq-HFucETP7qqi-i-164" vertex="1">
          <mxGeometry y="164" width="275" height="44" as="geometry" />
        </mxCell>
        <mxCell id="eS_6kq-HFucETP7qqi-i-177" value="ModifyCustomersUseCase modifyCustomersUseCase" style="text;align=left;verticalAlign=top;spacingLeft=4;spacingRight=4;overflow=hidden;rotatable=0;points=[[0,0.5],[1,0.5]];portConstraint=eastwest;fillColor=none;" parent="eS_6kq-HFucETP7qqi-i-164" vertex="1">
          <mxGeometry y="208" width="275" height="32" as="geometry" />
        </mxCell>
        <mxCell id="eS_6kq-HFucETP7qqi-i-169" value="" style="line;html=1;strokeWidth=1;align=left;verticalAlign=middle;spacingTop=-1;spacingLeft=3;spacingRight=3;rotatable=0;labelPosition=right;points=[];portConstraint=eastwest;" parent="eS_6kq-HFucETP7qqi-i-164" vertex="1">
          <mxGeometry y="240" width="275" height="8" as="geometry" />
        </mxCell>
        <mxCell id="eS_6kq-HFucETP7qqi-i-170" value="save(Customer customer)" style="text;align=left;verticalAlign=top;spacingLeft=4;spacingRight=4;overflow=hidden;rotatable=0;points=[[0,0.5],[1,0.5]];portConstraint=eastwest;" parent="eS_6kq-HFucETP7qqi-i-164" vertex="1">
          <mxGeometry y="248" width="275" height="26" as="geometry" />
        </mxCell>
        <mxCell id="eS_6kq-HFucETP7qqi-i-171" value="void deleteById(String id);" style="text;align=left;verticalAlign=top;spacingLeft=4;spacingRight=4;overflow=hidden;rotatable=0;points=[[0,0.5],[1,0.5]];portConstraint=eastwest;fillColor=none;" parent="eS_6kq-HFucETP7qqi-i-164" vertex="1">
          <mxGeometry y="274" width="275" height="26" as="geometry" />
        </mxCell>
        <mxCell id="eS_6kq-HFucETP7qqi-i-172" value="Optional&lt;Customer&gt; &#xa;findById(String id);" style="text;align=left;verticalAlign=top;spacingLeft=4;spacingRight=4;overflow=hidden;rotatable=0;points=[[0,0.5],[1,0.5]];portConstraint=eastwest;fillColor=none;" parent="eS_6kq-HFucETP7qqi-i-164" vertex="1">
          <mxGeometry y="300" width="275" height="40" as="geometry" />
        </mxCell>
        <mxCell id="eS_6kq-HFucETP7qqi-i-173" value="Customer merge(Customer &#xa;newCustomer, Customer &#xa;customer);" style="text;align=left;verticalAlign=top;spacingLeft=4;spacingRight=4;overflow=hidden;rotatable=0;points=[[0,0.5],[1,0.5]];portConstraint=eastwest;fillColor=none;" parent="eS_6kq-HFucETP7qqi-i-164" vertex="1">
          <mxGeometry y="340" width="275" height="60" as="geometry" />
        </mxCell>
        <mxCell id="eS_6kq-HFucETP7qqi-i-174" value="List&lt;Customer&gt; findByCriteria&#xa;(List&lt;SearchCriteria&gt; filters);" style="text;align=left;verticalAlign=top;spacingLeft=4;spacingRight=4;overflow=hidden;rotatable=0;points=[[0,0.5],[1,0.5]];portConstraint=eastwest;fillColor=none;" parent="eS_6kq-HFucETP7qqi-i-164" vertex="1">
          <mxGeometry y="400" width="275" height="44" as="geometry" />
        </mxCell>
        <mxCell id="eS_6kq-HFucETP7qqi-i-182" style="edgeStyle=orthogonalEdgeStyle;rounded=0;orthogonalLoop=1;jettySize=auto;html=1;entryX=-0.001;entryY=1.126;entryDx=0;entryDy=0;entryPerimeter=0;endArrow=none;endFill=0;startArrow=block;startFill=0;" parent="WIyWlLk6GJQsqaUBKTNV-1" source="eS_6kq-HFucETP7qqi-i-38" target="eS_6kq-HFucETP7qqi-i-15" edge="1">
          <mxGeometry relative="1" as="geometry" />
        </mxCell>
        <mxCell id="eS_6kq-HFucETP7qqi-i-183" style="edgeStyle=orthogonalEdgeStyle;rounded=0;orthogonalLoop=1;jettySize=auto;html=1;entryX=-0.008;entryY=-0.118;entryDx=0;entryDy=0;entryPerimeter=0;startArrow=block;startFill=0;endArrow=none;endFill=0;" parent="WIyWlLk6GJQsqaUBKTNV-1" source="eS_6kq-HFucETP7qqi-i-34" target="eS_6kq-HFucETP7qqi-i-13" edge="1">
          <mxGeometry relative="1" as="geometry" />
        </mxCell>
        <mxCell id="eS_6kq-HFucETP7qqi-i-184" style="edgeStyle=orthogonalEdgeStyle;rounded=0;orthogonalLoop=1;jettySize=auto;html=1;entryX=-0.005;entryY=-0.112;entryDx=0;entryDy=0;entryPerimeter=0;startArrow=block;startFill=0;endArrow=none;endFill=0;" parent="WIyWlLk6GJQsqaUBKTNV-1" source="eS_6kq-HFucETP7qqi-i-30" target="eS_6kq-HFucETP7qqi-i-9" edge="1">
          <mxGeometry relative="1" as="geometry" />
        </mxCell>
        <mxCell id="eS_6kq-HFucETP7qqi-i-185" style="edgeStyle=orthogonalEdgeStyle;rounded=0;orthogonalLoop=1;jettySize=auto;html=1;entryX=-0.003;entryY=-0.051;entryDx=0;entryDy=0;entryPerimeter=0;startArrow=block;startFill=0;endArrow=none;endFill=0;" parent="WIyWlLk6GJQsqaUBKTNV-1" source="eS_6kq-HFucETP7qqi-i-26" target="eS_6kq-HFucETP7qqi-i-5" edge="1">
          <mxGeometry relative="1" as="geometry" />
        </mxCell>
        <mxCell id="eS_6kq-HFucETP7qqi-i-186" style="edgeStyle=orthogonalEdgeStyle;rounded=0;orthogonalLoop=1;jettySize=auto;html=1;entryX=0;entryY=0.5;entryDx=0;entryDy=0;" parent="WIyWlLk6GJQsqaUBKTNV-1" source="eS_6kq-HFucETP7qqi-i-175" target="eS_6kq-HFucETP7qqi-i-30" edge="1">
          <mxGeometry relative="1" as="geometry" />
        </mxCell>
        <mxCell id="eS_6kq-HFucETP7qqi-i-187" style="edgeStyle=orthogonalEdgeStyle;rounded=0;orthogonalLoop=1;jettySize=auto;html=1;exitX=1;exitY=0.5;exitDx=0;exitDy=0;entryX=0;entryY=0.5;entryDx=0;entryDy=0;" parent="WIyWlLk6GJQsqaUBKTNV-1" source="eS_6kq-HFucETP7qqi-i-166" target="eS_6kq-HFucETP7qqi-i-26" edge="1">
          <mxGeometry relative="1" as="geometry" />
        </mxCell>
        <mxCell id="eS_6kq-HFucETP7qqi-i-188" style="edgeStyle=orthogonalEdgeStyle;rounded=0;orthogonalLoop=1;jettySize=auto;html=1;exitX=1;exitY=0.5;exitDx=0;exitDy=0;entryX=-0.014;entryY=0.235;entryDx=0;entryDy=0;entryPerimeter=0;" parent="WIyWlLk6GJQsqaUBKTNV-1" source="eS_6kq-HFucETP7qqi-i-177" target="eS_6kq-HFucETP7qqi-i-34" edge="1">
          <mxGeometry relative="1" as="geometry" />
        </mxCell>
        <mxCell id="eS_6kq-HFucETP7qqi-i-189" style="edgeStyle=orthogonalEdgeStyle;rounded=0;orthogonalLoop=1;jettySize=auto;html=1;exitX=1;exitY=0.5;exitDx=0;exitDy=0;entryX=0.003;entryY=0.163;entryDx=0;entryDy=0;entryPerimeter=0;" parent="WIyWlLk6GJQsqaUBKTNV-1" source="eS_6kq-HFucETP7qqi-i-172" target="eS_6kq-HFucETP7qqi-i-38" edge="1">
          <mxGeometry relative="1" as="geometry" />
        </mxCell>
        <mxCell id="eS_6kq-HFucETP7qqi-i-190" style="edgeStyle=orthogonalEdgeStyle;rounded=0;orthogonalLoop=1;jettySize=auto;html=1;exitX=1;exitY=0.5;exitDx=0;exitDy=0;entryX=0;entryY=0.5;entryDx=0;entryDy=0;" parent="WIyWlLk6GJQsqaUBKTNV-1" source="eS_6kq-HFucETP7qqi-i-174" target="eS_6kq-HFucETP7qqi-i-43" edge="1">
          <mxGeometry relative="1" as="geometry" />
        </mxCell>
        <mxCell id="eS_6kq-HFucETP7qqi-i-192" style="edgeStyle=orthogonalEdgeStyle;rounded=0;orthogonalLoop=1;jettySize=auto;html=1;entryX=0;entryY=0.5;entryDx=0;entryDy=0;endArrow=none;endFill=0;" parent="WIyWlLk6GJQsqaUBKTNV-1" source="eS_6kq-HFucETP7qqi-i-1" target="eS_6kq-HFucETP7qqi-i-98" edge="1">
          <mxGeometry relative="1" as="geometry">
            <Array as="points">
              <mxPoint x="-160" y="-824" />
              <mxPoint x="-160" y="-600" />
            </Array>
          </mxGeometry>
        </mxCell>
        <mxCell id="eS_6kq-HFucETP7qqi-i-193" style="edgeStyle=orthogonalEdgeStyle;rounded=0;orthogonalLoop=1;jettySize=auto;html=1;exitX=0.99;exitY=-0.065;exitDx=0;exitDy=0;exitPerimeter=0;entryX=0;entryY=0.5;entryDx=0;entryDy=0;endArrow=none;endFill=0;" parent="WIyWlLk6GJQsqaUBKTNV-1" source="eS_6kq-HFucETP7qqi-i-9" target="eS_6kq-HFucETP7qqi-i-101" edge="1">
          <mxGeometry relative="1" as="geometry">
            <mxPoint x="-130" y="-600" as="targetPoint" />
            <Array as="points">
              <mxPoint x="-160" y="-675" />
              <mxPoint x="-160" y="-600" />
              <mxPoint x="-120" y="-600" />
            </Array>
          </mxGeometry>
        </mxCell>
        <mxCell id="eS_6kq-HFucETP7qqi-i-198" style="edgeStyle=orthogonalEdgeStyle;rounded=0;orthogonalLoop=1;jettySize=auto;html=1;entryX=-0.007;entryY=0.7;entryDx=0;entryDy=0;entryPerimeter=0;startArrow=block;startFill=0;endArrow=none;endFill=0;" parent="WIyWlLk6GJQsqaUBKTNV-1" source="eS_6kq-HFucETP7qqi-i-101" target="eS_6kq-HFucETP7qqi-i-159" edge="1">
          <mxGeometry relative="1" as="geometry" />
        </mxCell>
        <mxCell id="eS_6kq-HFucETP7qqi-i-204" style="edgeStyle=orthogonalEdgeStyle;rounded=0;orthogonalLoop=1;jettySize=auto;html=1;entryX=0.539;entryY=0.001;entryDx=0;entryDy=0;entryPerimeter=0;endArrow=none;endFill=0;startArrow=classic;startFill=1;" parent="WIyWlLk6GJQsqaUBKTNV-1" source="eS_6kq-HFucETP7qqi-i-113" target="eS_6kq-HFucETP7qqi-i-164" edge="1">
          <mxGeometry relative="1" as="geometry" />
        </mxCell>
        <mxCell id="eS_6kq-HFucETP7qqi-i-205" style="edgeStyle=orthogonalEdgeStyle;rounded=0;orthogonalLoop=1;jettySize=auto;html=1;entryX=0.539;entryY=0.009;entryDx=0;entryDy=0;entryPerimeter=0;startArrow=classic;startFill=1;endArrow=none;endFill=0;" parent="WIyWlLk6GJQsqaUBKTNV-1" source="eS_6kq-HFucETP7qqi-i-105" target="eS_6kq-HFucETP7qqi-i-164" edge="1">
          <mxGeometry relative="1" as="geometry" />
        </mxCell>
        <mxCell id="eS_6kq-HFucETP7qqi-i-209" style="edgeStyle=orthogonalEdgeStyle;rounded=0;orthogonalLoop=1;jettySize=auto;html=1;entryX=0.013;entryY=0.903;entryDx=0;entryDy=0;entryPerimeter=0;" parent="WIyWlLk6GJQsqaUBKTNV-1" source="eS_6kq-HFucETP7qqi-i-141" target="eS_6kq-HFucETP7qqi-i-124" edge="1">
          <mxGeometry relative="1" as="geometry" />
        </mxCell>
        <mxCell id="eS_6kq-HFucETP7qqi-i-247" style="edgeStyle=orthogonalEdgeStyle;rounded=0;orthogonalLoop=1;jettySize=auto;html=1;entryX=0;entryY=0.5;entryDx=0;entryDy=0;" parent="WIyWlLk6GJQsqaUBKTNV-1" source="eS_6kq-HFucETP7qqi-i-212" target="eS_6kq-HFucETP7qqi-i-130" edge="1">
          <mxGeometry relative="1" as="geometry" />
        </mxCell>
        <mxCell id="eS_6kq-HFucETP7qqi-i-212" value="CustomerNeedsInvoiceField" style="swimlane;fontStyle=2;align=center;verticalAlign=top;childLayout=stackLayout;horizontal=1;startSize=26;horizontalStack=0;resizeParent=1;resizeLast=0;collapsible=1;marginBottom=0;rounded=0;shadow=0;strokeWidth=1;" parent="WIyWlLk6GJQsqaUBKTNV-1" vertex="1">
          <mxGeometry x="827" y="-643" width="240" height="130" as="geometry">
            <mxRectangle x="230" y="140" width="160" height="26" as="alternateBounds" />
          </mxGeometry>
        </mxCell>
        <mxCell id="eS_6kq-HFucETP7qqi-i-213" value="PredicateBuilder&lt;String&gt; predicateBuilder" style="text;align=left;verticalAlign=top;spacingLeft=4;spacingRight=4;overflow=hidden;rotatable=0;points=[[0,0.5],[1,0.5]];portConstraint=eastwest;fillColor=none;" parent="eS_6kq-HFucETP7qqi-i-212" vertex="1">
          <mxGeometry y="26" width="240" height="22" as="geometry" />
        </mxCell>
        <mxCell id="eS_6kq-HFucETP7qqi-i-214" value="" style="line;html=1;strokeWidth=1;align=left;verticalAlign=middle;spacingTop=-1;spacingLeft=3;spacingRight=3;rotatable=0;labelPosition=right;points=[];portConstraint=eastwest;" parent="eS_6kq-HFucETP7qqi-i-212" vertex="1">
          <mxGeometry y="48" width="240" height="8" as="geometry" />
        </mxCell>
        <mxCell id="eS_6kq-HFucETP7qqi-i-215" value="String getFieldName()" style="text;align=left;verticalAlign=top;spacingLeft=4;spacingRight=4;overflow=hidden;rotatable=0;points=[[0,0.5],[1,0.5]];portConstraint=eastwest;fillColor=none;" parent="eS_6kq-HFucETP7qqi-i-212" vertex="1">
          <mxGeometry y="56" width="240" height="24" as="geometry" />
        </mxCell>
        <mxCell id="eS_6kq-HFucETP7qqi-i-216" value="void addToQuery(BooleanBuilder &#xa;booleanBuilder, SearchCriteria &#xa;searchCriteria);" style="text;align=left;verticalAlign=top;spacingLeft=4;spacingRight=4;overflow=hidden;rotatable=0;points=[[0,0.5],[1,0.5]];portConstraint=eastwest;fillColor=none;" parent="eS_6kq-HFucETP7qqi-i-212" vertex="1">
          <mxGeometry y="80" width="240" height="50" as="geometry" />
        </mxCell>
        <mxCell id="eS_6kq-HFucETP7qqi-i-248" style="edgeStyle=orthogonalEdgeStyle;rounded=0;orthogonalLoop=1;jettySize=auto;html=1;entryX=0;entryY=0.5;entryDx=0;entryDy=0;" parent="WIyWlLk6GJQsqaUBKTNV-1" source="eS_6kq-HFucETP7qqi-i-217" target="eS_6kq-HFucETP7qqi-i-130" edge="1">
          <mxGeometry relative="1" as="geometry">
            <Array as="points">
              <mxPoint x="1100" y="-432" />
              <mxPoint x="1100" y="-647" />
            </Array>
          </mxGeometry>
        </mxCell>
        <mxCell id="eS_6kq-HFucETP7qqi-i-217" value="CustomerAddressField" style="swimlane;fontStyle=2;align=center;verticalAlign=top;childLayout=stackLayout;horizontal=1;startSize=26;horizontalStack=0;resizeParent=1;resizeLast=0;collapsible=1;marginBottom=0;rounded=0;shadow=0;strokeWidth=1;" parent="WIyWlLk6GJQsqaUBKTNV-1" vertex="1">
          <mxGeometry x="827" y="-497" width="240" height="130" as="geometry">
            <mxRectangle x="230" y="140" width="160" height="26" as="alternateBounds" />
          </mxGeometry>
        </mxCell>
        <mxCell id="eS_6kq-HFucETP7qqi-i-218" value="PredicateBuilder&lt;String&gt; predicateBuilder" style="text;align=left;verticalAlign=top;spacingLeft=4;spacingRight=4;overflow=hidden;rotatable=0;points=[[0,0.5],[1,0.5]];portConstraint=eastwest;fillColor=none;" parent="eS_6kq-HFucETP7qqi-i-217" vertex="1">
          <mxGeometry y="26" width="240" height="22" as="geometry" />
        </mxCell>
        <mxCell id="eS_6kq-HFucETP7qqi-i-219" value="" style="line;html=1;strokeWidth=1;align=left;verticalAlign=middle;spacingTop=-1;spacingLeft=3;spacingRight=3;rotatable=0;labelPosition=right;points=[];portConstraint=eastwest;" parent="eS_6kq-HFucETP7qqi-i-217" vertex="1">
          <mxGeometry y="48" width="240" height="8" as="geometry" />
        </mxCell>
        <mxCell id="eS_6kq-HFucETP7qqi-i-220" value="String getFieldName()" style="text;align=left;verticalAlign=top;spacingLeft=4;spacingRight=4;overflow=hidden;rotatable=0;points=[[0,0.5],[1,0.5]];portConstraint=eastwest;fillColor=none;" parent="eS_6kq-HFucETP7qqi-i-217" vertex="1">
          <mxGeometry y="56" width="240" height="24" as="geometry" />
        </mxCell>
        <mxCell id="eS_6kq-HFucETP7qqi-i-221" value="void addToQuery(BooleanBuilder &#xa;booleanBuilder, SearchCriteria &#xa;searchCriteria);" style="text;align=left;verticalAlign=top;spacingLeft=4;spacingRight=4;overflow=hidden;rotatable=0;points=[[0,0.5],[1,0.5]];portConstraint=eastwest;fillColor=none;" parent="eS_6kq-HFucETP7qqi-i-217" vertex="1">
          <mxGeometry y="80" width="240" height="50" as="geometry" />
        </mxCell>
        <mxCell id="eS_6kq-HFucETP7qqi-i-222" value="CustomerLastField" style="swimlane;fontStyle=2;align=center;verticalAlign=top;childLayout=stackLayout;horizontal=1;startSize=26;horizontalStack=0;resizeParent=1;resizeLast=0;collapsible=1;marginBottom=0;rounded=0;shadow=0;strokeWidth=1;" parent="WIyWlLk6GJQsqaUBKTNV-1" vertex="1">
          <mxGeometry x="825" y="-934" width="240" height="130" as="geometry">
            <mxRectangle x="230" y="140" width="160" height="26" as="alternateBounds" />
          </mxGeometry>
        </mxCell>
        <mxCell id="eS_6kq-HFucETP7qqi-i-223" value="PredicateBuilder&lt;String&gt; predicateBuilder" style="text;align=left;verticalAlign=top;spacingLeft=4;spacingRight=4;overflow=hidden;rotatable=0;points=[[0,0.5],[1,0.5]];portConstraint=eastwest;fillColor=none;" parent="eS_6kq-HFucETP7qqi-i-222" vertex="1">
          <mxGeometry y="26" width="240" height="22" as="geometry" />
        </mxCell>
        <mxCell id="eS_6kq-HFucETP7qqi-i-224" value="" style="line;html=1;strokeWidth=1;align=left;verticalAlign=middle;spacingTop=-1;spacingLeft=3;spacingRight=3;rotatable=0;labelPosition=right;points=[];portConstraint=eastwest;" parent="eS_6kq-HFucETP7qqi-i-222" vertex="1">
          <mxGeometry y="48" width="240" height="8" as="geometry" />
        </mxCell>
        <mxCell id="eS_6kq-HFucETP7qqi-i-225" value="String getFieldName()" style="text;align=left;verticalAlign=top;spacingLeft=4;spacingRight=4;overflow=hidden;rotatable=0;points=[[0,0.5],[1,0.5]];portConstraint=eastwest;fillColor=none;" parent="eS_6kq-HFucETP7qqi-i-222" vertex="1">
          <mxGeometry y="56" width="240" height="24" as="geometry" />
        </mxCell>
        <mxCell id="eS_6kq-HFucETP7qqi-i-226" value="void addToQuery(BooleanBuilder &#xa;booleanBuilder, SearchCriteria &#xa;searchCriteria);" style="text;align=left;verticalAlign=top;spacingLeft=4;spacingRight=4;overflow=hidden;rotatable=0;points=[[0,0.5],[1,0.5]];portConstraint=eastwest;fillColor=none;" parent="eS_6kq-HFucETP7qqi-i-222" vertex="1">
          <mxGeometry y="80" width="240" height="50" as="geometry" />
        </mxCell>
        <mxCell id="eS_6kq-HFucETP7qqi-i-243" style="edgeStyle=orthogonalEdgeStyle;rounded=0;orthogonalLoop=1;jettySize=auto;html=1;startArrow=block;startFill=0;endArrow=none;endFill=0;" parent="WIyWlLk6GJQsqaUBKTNV-1" source="eS_6kq-HFucETP7qqi-i-227" edge="1">
          <mxGeometry relative="1" as="geometry">
            <mxPoint x="650" y="-560" as="targetPoint" />
          </mxGeometry>
        </mxCell>
        <mxCell id="eS_6kq-HFucETP7qqi-i-249" style="edgeStyle=orthogonalEdgeStyle;rounded=0;orthogonalLoop=1;jettySize=auto;html=1;entryX=0;entryY=0.5;entryDx=0;entryDy=0;" parent="WIyWlLk6GJQsqaUBKTNV-1" source="eS_6kq-HFucETP7qqi-i-227" target="eS_6kq-HFucETP7qqi-i-130" edge="1">
          <mxGeometry relative="1" as="geometry">
            <Array as="points">
              <mxPoint x="1100" y="-291" />
              <mxPoint x="1100" y="-647" />
            </Array>
          </mxGeometry>
        </mxCell>
        <mxCell id="eS_6kq-HFucETP7qqi-i-227" value="CustomerMobilePhoneField" style="swimlane;fontStyle=2;align=center;verticalAlign=top;childLayout=stackLayout;horizontal=1;startSize=26;horizontalStack=0;resizeParent=1;resizeLast=0;collapsible=1;marginBottom=0;rounded=0;shadow=0;strokeWidth=1;" parent="WIyWlLk6GJQsqaUBKTNV-1" vertex="1">
          <mxGeometry x="827" y="-356" width="240" height="130" as="geometry">
            <mxRectangle x="230" y="140" width="160" height="26" as="alternateBounds" />
          </mxGeometry>
        </mxCell>
        <mxCell id="eS_6kq-HFucETP7qqi-i-228" value="PredicateBuilder&lt;String&gt; predicateBuilder" style="text;align=left;verticalAlign=top;spacingLeft=4;spacingRight=4;overflow=hidden;rotatable=0;points=[[0,0.5],[1,0.5]];portConstraint=eastwest;fillColor=none;" parent="eS_6kq-HFucETP7qqi-i-227" vertex="1">
          <mxGeometry y="26" width="240" height="22" as="geometry" />
        </mxCell>
        <mxCell id="eS_6kq-HFucETP7qqi-i-229" value="" style="line;html=1;strokeWidth=1;align=left;verticalAlign=middle;spacingTop=-1;spacingLeft=3;spacingRight=3;rotatable=0;labelPosition=right;points=[];portConstraint=eastwest;" parent="eS_6kq-HFucETP7qqi-i-227" vertex="1">
          <mxGeometry y="48" width="240" height="8" as="geometry" />
        </mxCell>
        <mxCell id="eS_6kq-HFucETP7qqi-i-230" value="String getFieldName()" style="text;align=left;verticalAlign=top;spacingLeft=4;spacingRight=4;overflow=hidden;rotatable=0;points=[[0,0.5],[1,0.5]];portConstraint=eastwest;fillColor=none;" parent="eS_6kq-HFucETP7qqi-i-227" vertex="1">
          <mxGeometry y="56" width="240" height="24" as="geometry" />
        </mxCell>
        <mxCell id="eS_6kq-HFucETP7qqi-i-231" value="void addToQuery(BooleanBuilder &#xa;booleanBuilder, SearchCriteria &#xa;searchCriteria);" style="text;align=left;verticalAlign=top;spacingLeft=4;spacingRight=4;overflow=hidden;rotatable=0;points=[[0,0.5],[1,0.5]];portConstraint=eastwest;fillColor=none;" parent="eS_6kq-HFucETP7qqi-i-227" vertex="1">
          <mxGeometry y="80" width="240" height="50" as="geometry" />
        </mxCell>
        <mxCell id="eS_6kq-HFucETP7qqi-i-232" value="CustomerNameField" style="swimlane;fontStyle=2;align=center;verticalAlign=top;childLayout=stackLayout;horizontal=1;startSize=26;horizontalStack=0;resizeParent=1;resizeLast=0;collapsible=1;marginBottom=0;rounded=0;shadow=0;strokeWidth=1;" parent="WIyWlLk6GJQsqaUBKTNV-1" vertex="1">
          <mxGeometry x="825" y="-1080" width="240" height="130" as="geometry">
            <mxRectangle x="230" y="140" width="160" height="26" as="alternateBounds" />
          </mxGeometry>
        </mxCell>
        <mxCell id="eS_6kq-HFucETP7qqi-i-233" value="PredicateBuilder&lt;String&gt; predicateBuilder" style="text;align=left;verticalAlign=top;spacingLeft=4;spacingRight=4;overflow=hidden;rotatable=0;points=[[0,0.5],[1,0.5]];portConstraint=eastwest;fillColor=none;" parent="eS_6kq-HFucETP7qqi-i-232" vertex="1">
          <mxGeometry y="26" width="240" height="22" as="geometry" />
        </mxCell>
        <mxCell id="eS_6kq-HFucETP7qqi-i-234" value="" style="line;html=1;strokeWidth=1;align=left;verticalAlign=middle;spacingTop=-1;spacingLeft=3;spacingRight=3;rotatable=0;labelPosition=right;points=[];portConstraint=eastwest;" parent="eS_6kq-HFucETP7qqi-i-232" vertex="1">
          <mxGeometry y="48" width="240" height="8" as="geometry" />
        </mxCell>
        <mxCell id="eS_6kq-HFucETP7qqi-i-235" value="String getFieldName()" style="text;align=left;verticalAlign=top;spacingLeft=4;spacingRight=4;overflow=hidden;rotatable=0;points=[[0,0.5],[1,0.5]];portConstraint=eastwest;fillColor=none;" parent="eS_6kq-HFucETP7qqi-i-232" vertex="1">
          <mxGeometry y="56" width="240" height="24" as="geometry" />
        </mxCell>
        <mxCell id="eS_6kq-HFucETP7qqi-i-236" value="void addToQuery(BooleanBuilder &#xa;booleanBuilder, SearchCriteria &#xa;searchCriteria);" style="text;align=left;verticalAlign=top;spacingLeft=4;spacingRight=4;overflow=hidden;rotatable=0;points=[[0,0.5],[1,0.5]];portConstraint=eastwest;fillColor=none;" parent="eS_6kq-HFucETP7qqi-i-232" vertex="1">
          <mxGeometry y="80" width="240" height="50" as="geometry" />
        </mxCell>
        <mxCell id="eS_6kq-HFucETP7qqi-i-238" style="edgeStyle=orthogonalEdgeStyle;rounded=0;orthogonalLoop=1;jettySize=auto;html=1;entryX=-0.011;entryY=0.065;entryDx=0;entryDy=0;entryPerimeter=0;endArrow=none;endFill=0;startArrow=block;startFill=0;" parent="WIyWlLk6GJQsqaUBKTNV-1" source="eS_6kq-HFucETP7qqi-i-133" target="eS_6kq-HFucETP7qqi-i-236" edge="1">
          <mxGeometry relative="1" as="geometry">
            <Array as="points">
              <mxPoint x="793" y="-610" />
              <mxPoint x="793" y="-997" />
            </Array>
          </mxGeometry>
        </mxCell>
        <mxCell id="eS_6kq-HFucETP7qqi-i-240" style="edgeStyle=orthogonalEdgeStyle;rounded=0;orthogonalLoop=1;jettySize=auto;html=1;entryX=0.007;entryY=0.141;entryDx=0;entryDy=0;entryPerimeter=0;endArrow=none;endFill=0;startArrow=none;startFill=0;" parent="WIyWlLk6GJQsqaUBKTNV-1" source="eS_6kq-HFucETP7qqi-i-131" target="eS_6kq-HFucETP7qqi-i-136" edge="1">
          <mxGeometry relative="1" as="geometry" />
        </mxCell>
        <mxCell id="eS_6kq-HFucETP7qqi-i-241" style="edgeStyle=orthogonalEdgeStyle;rounded=0;orthogonalLoop=1;jettySize=auto;html=1;entryX=1.003;entryY=1.14;entryDx=0;entryDy=0;entryPerimeter=0;endArrow=none;endFill=0;startArrow=none;startFill=0;" parent="WIyWlLk6GJQsqaUBKTNV-1" source="eS_6kq-HFucETP7qqi-i-216" target="eS_6kq-HFucETP7qqi-i-132" edge="1">
          <mxGeometry relative="1" as="geometry" />
        </mxCell>
        <mxCell id="eS_6kq-HFucETP7qqi-i-242" style="edgeStyle=orthogonalEdgeStyle;rounded=0;orthogonalLoop=1;jettySize=auto;html=1;entryX=0.022;entryY=0.917;entryDx=0;entryDy=0;entryPerimeter=0;startArrow=block;startFill=0;endArrow=none;endFill=0;" parent="WIyWlLk6GJQsqaUBKTNV-1" source="eS_6kq-HFucETP7qqi-i-131" target="eS_6kq-HFucETP7qqi-i-220" edge="1">
          <mxGeometry relative="1" as="geometry" />
        </mxCell>
        <mxCell id="eS_6kq-HFucETP7qqi-i-244" style="edgeStyle=orthogonalEdgeStyle;rounded=0;orthogonalLoop=1;jettySize=auto;html=1;entryX=0;entryY=0.5;entryDx=0;entryDy=0;" parent="WIyWlLk6GJQsqaUBKTNV-1" source="eS_6kq-HFucETP7qqi-i-236" target="eS_6kq-HFucETP7qqi-i-130" edge="1">
          <mxGeometry relative="1" as="geometry" />
        </mxCell>
        <mxCell id="eS_6kq-HFucETP7qqi-i-245" style="edgeStyle=orthogonalEdgeStyle;rounded=0;orthogonalLoop=1;jettySize=auto;html=1;entryX=0;entryY=0.5;entryDx=0;entryDy=0;" parent="WIyWlLk6GJQsqaUBKTNV-1" source="eS_6kq-HFucETP7qqi-i-225" target="eS_6kq-HFucETP7qqi-i-130" edge="1">
          <mxGeometry relative="1" as="geometry" />
        </mxCell>
        <mxCell id="eS_6kq-HFucETP7qqi-i-253" style="edgeStyle=orthogonalEdgeStyle;rounded=0;orthogonalLoop=1;jettySize=auto;html=1;entryX=0.591;entryY=0.031;entryDx=0;entryDy=0;entryPerimeter=0;endArrow=none;endFill=0;" parent="WIyWlLk6GJQsqaUBKTNV-1" source="eS_6kq-HFucETP7qqi-i-44" target="eS_6kq-HFucETP7qqi-i-64" edge="1">
          <mxGeometry relative="1" as="geometry" />
        </mxCell>
        <mxCell id="eS_6kq-HFucETP7qqi-i-259" style="edgeStyle=orthogonalEdgeStyle;rounded=0;orthogonalLoop=1;jettySize=auto;html=1;entryX=0.446;entryY=0.005;entryDx=0;entryDy=0;entryPerimeter=0;" parent="WIyWlLk6GJQsqaUBKTNV-1" source="eS_6kq-HFucETP7qqi-i-143" target="eS_6kq-HFucETP7qqi-i-89" edge="1">
          <mxGeometry relative="1" as="geometry" />
        </mxCell>
        <mxCell id="eS_6kq-HFucETP7qqi-i-262" style="edgeStyle=orthogonalEdgeStyle;rounded=0;orthogonalLoop=1;jettySize=auto;html=1;entryX=1;entryY=0.5;entryDx=0;entryDy=0;endArrow=block;endFill=0;" parent="WIyWlLk6GJQsqaUBKTNV-1" source="eS_6kq-HFucETP7qqi-i-21" target="eS_6kq-HFucETP7qqi-i-43" edge="1">
          <mxGeometry relative="1" as="geometry" />
        </mxCell>
      </root>
    </mxGraphModel>
  </diagram>
</mxfile>
